<?xml version="1.0" encoding="UTF-8" standalone="no"?>
<!-- Created with Inkscape (http://www.inkscape.org/) -->

<svg
   width="127.99999"
   height="127.99999"
   viewBox="0 0 33.866664 33.866664"
   version="1.1"
   id="svg1"
   xmlns="http://www.w3.org/2000/svg"
   xmlns:svg="http://www.w3.org/2000/svg">
  <defs
     id="defs1" />
  <g
     id="layer1"
     transform="translate(-43.866666)">
    <g
       id="g2"
       transform="translate(43.866665,3.0166477)"
       style="display:inline">
      <path
         id="path9-2"
         style="fill:#e3c063;fill-opacity:1;stroke-width:3.43588"
         d="m 16.933758,0.50200057 c -0.591891,5.08e-5 -1.071718,0.47987781 -1.071769,1.07176923 V 4.919302 c 5.1e-5,0.5918914 0.479878,1.0717184 1.071769,1.0717692 0.591674,-3.588e-4 1.071203,-0.4800956 1.071253,-1.0717692 V 1.5737698 c -5e-5,-0.5916736 -0.479579,-1.07141042 -1.071253,-1.07176923 z M 27.839036,4.956509 c -0.284111,2.7e-6 -0.556596,0.1128642 -0.757577,0.313676 l -2.365747,2.3657471 c -0.418513,0.4185694 -0.418513,1.0971002 0,1.5156697 0.41857,0.4185133 1.0971,0.4185133 1.51567,0 l 2.365747,-2.3657471 c 0.418514,-0.4185694 0.418514,-1.0971002 0,-1.5156697 C 28.396011,5.0692368 28.123339,4.956364 27.839036,4.956509 Z M 6.0543189,4.9833808 C 5.7700151,4.9832356 5.4973435,5.0961083 5.2962256,5.2970567 c -0.4185136,0.4185695 -0.4185136,1.0971003 0,1.5156698 l 2.3657471,2.3657471 c 0.4185696,0.4185141 1.0971002,0.4185141 1.5156698,0 0.4185139,-0.4185696 0.4185139,-1.0971002 0,-1.5156698 L 6.8118954,5.2970567 C 6.6109141,5.0962449 6.3384295,4.9833834 6.0543189,4.9833808 Z M 16.933241,8.6880642 c -4.554053,9.57e-5 -8.2459111,3.6919548 -8.2460079,8.2460088 2.34e-5,1.118323 0.2250235,2.183451 0.6283854,3.155879 H 24.550864 C 24.954229,19.117521 25.179226,18.0524 25.17925,16.934073 25.179153,12.380018 21.487296,8.6881595 16.933241,8.6880642 Z M 1.5770728,15.862303 c -0.59189099,5.1e-5 -1.07171786,0.479878 -1.07176921,1.07177 5.025e-5,0.591891 0.47987743,1.071718 1.07176921,1.071769 H 4.922605 c 0.5918913,-5.1e-5 1.0712023,-0.479878 1.0712525,-1.071769 -5.14e-5,-0.591891 -0.479362,-1.071719 -1.0712525,-1.07177 z m 27.3673222,0 c -0.591892,5e-5 -1.071719,0.479878 -1.07177,1.07177 5e-5,0.591892 0.479877,1.071719 1.07177,1.071769 h 3.345015 c 0.591891,-5.1e-5 1.071719,-0.479878 1.071769,-1.071769 -5.1e-5,-0.591891 -0.479879,-1.071719 -1.071769,-1.07177 z" />
      <path
         style="display:inline;fill:none;fill-opacity:0.67451;stroke:#313539;stroke-width:2.05347;stroke-linecap:round;stroke-linejoin:round;stroke-dasharray:none;stroke-opacity:1;paint-order:stroke fill markers"
         d="M 1.6789577,22.205741 H 32.18771"
         id="path1-0-5" />
    </g>
  </g>
</svg>
