<svg width="141" height="141" viewBox="0 0 141 141" fill="none" xmlns="http://www.w3.org/2000/svg">
<path d="M70.952 140.308C61.243 140.308 52.1362 138.457 43.6317 134.756C35.1271 131.055 27.7089 126.039 21.3769 119.706C15.0449 113.374 10.0283 105.956 6.32707 97.4517C2.62595 88.9471 0.775391 79.8404 0.775391 70.1315C0.775391 52.9337 6.30556 37.8369 17.3659 24.8413C28.4261 11.8458 42.3835 3.80918 59.2381 0.731537C57.6483 12.0757 58.4095 23.1921 61.5216 34.0808C64.6336 44.9697 70.2614 54.4645 78.4048 62.5653C86.4629 70.6661 95.9417 76.2648 106.841 79.3612C117.741 82.4577 128.868 83.3923 140.224 82.1652C137.281 98.9557 129.299 112.844 116.279 123.829C103.259 134.815 88.1501 140.308 70.952 140.308Z" fill="#9ABFCF"/>
</svg>
