<svg width="24" height="24" viewBox="0 0 24 24" fill="none" xmlns="http://www.w3.org/2000/svg">
<path d="M11.9971 4.90705C11.7296 4.90705 11.5053 4.8159 11.3244 4.6336C11.1435 4.4513 11.0531 4.22682 11.0531 3.96015V1.79347C11.0531 1.52681 11.1445 1.30233 11.3274 1.12003C11.5102 0.937708 11.7354 0.846549 12.0029 0.846549C12.2704 0.846549 12.4946 0.937708 12.6755 1.12003C12.8564 1.30233 12.9469 1.52681 12.9469 1.79347V3.96015C12.9469 4.22682 12.8555 4.4513 12.6726 4.6336C12.4897 4.8159 12.2646 4.90705 11.9971 4.90705ZM17.0129 6.98712C16.8292 6.80344 16.7373 6.58293 16.7373 6.3256C16.7373 6.06827 16.8292 5.84675 17.0129 5.66105L18.5295 4.11937C18.7195 3.93012 18.9449 3.8355 19.2056 3.8355C19.4664 3.8355 19.6914 3.93012 19.8806 4.11937C20.0656 4.30307 20.1578 4.52409 20.1571 4.78242C20.1565 5.04076 20.0643 5.26177 19.8806 5.44547L18.3389 6.98712C18.1552 7.17082 17.9342 7.26267 17.6759 7.26267C17.4175 7.26267 17.1965 7.17082 17.0129 6.98712ZM20.0398 12.9469C19.7732 12.9469 19.5487 12.8555 19.3664 12.6726C19.1841 12.4898 19.0929 12.2646 19.0929 11.9971C19.0929 11.7296 19.1841 11.5054 19.3664 11.3244C19.5487 11.1435 19.7732 11.0531 20.0398 11.0531H22.2065C22.4732 11.0531 22.6977 11.1445 22.88 11.3274C23.0623 11.5102 23.1534 11.7354 23.1534 12.0029C23.1534 12.2704 23.0623 12.4946 22.88 12.6755C22.6977 12.8565 22.4732 12.9469 22.2065 12.9469H20.0398ZM11.9971 23.1534C11.7296 23.1534 11.5053 23.0623 11.3244 22.88C11.1435 22.6977 11.0531 22.4732 11.0531 22.2065V20.0398C11.0531 19.7732 11.1445 19.5487 11.3274 19.3664C11.5102 19.1841 11.7354 19.0929 12.0029 19.0929C12.2704 19.0929 12.4946 19.1841 12.6755 19.3664C12.8564 19.5487 12.9469 19.7732 12.9469 20.0398V22.2065C12.9469 22.4732 12.8555 22.6977 12.6726 22.88C12.4897 23.0623 12.2646 23.1534 11.9971 23.1534ZM5.66103 6.98715L4.11935 5.4705C3.9301 5.28668 3.83548 5.06247 3.83548 4.79785C3.83548 4.53323 3.93228 4.30708 4.12588 4.1194C4.30921 3.93572 4.52905 3.84387 4.7854 3.84387C5.04174 3.84387 5.26175 3.93572 5.44545 4.1194L6.9871 5.66107C7.17478 5.84876 7.26863 6.07177 7.26863 6.3301C7.26863 6.58843 7.17478 6.80945 6.9871 6.99315C6.79483 7.16572 6.56996 7.25167 6.31248 7.251C6.05499 7.25033 5.83784 7.1624 5.66103 6.98715ZM18.5402 19.8806L17.0069 18.339C16.8232 18.1519 16.7323 17.9291 16.7343 17.6704C16.7363 17.4118 16.8292 17.1906 17.0129 17.0069C17.1882 16.8343 17.4057 16.748 17.6655 16.748C17.9252 16.748 18.1497 16.8343 18.3389 17.0069L19.8973 18.5236C20.0865 18.7073 20.1777 18.9316 20.1708 19.1967C20.1639 19.4617 20.0733 19.6903 19.899 19.8824C19.7109 20.0718 19.4843 20.1665 19.2193 20.1665C18.9542 20.1665 18.7279 20.0712 18.5402 19.8806ZM1.79345 12.9469C1.52679 12.9469 1.3023 12.8555 1.12 12.6726C0.937685 12.4898 0.846527 12.2646 0.846527 11.9971C0.846527 11.7296 0.937685 11.5054 1.12 11.3244C1.3023 11.1435 1.52679 11.0531 1.79345 11.0531H3.96013C4.22679 11.0531 4.45128 11.1445 4.63358 11.3274C4.81588 11.5102 4.90703 11.7354 4.90703 12.0029C4.90703 12.2704 4.81588 12.4946 4.63358 12.6755C4.45128 12.8565 4.22679 12.9469 3.96013 12.9469H1.79345ZM4.11935 19.8741C3.93434 19.6908 3.84183 19.4709 3.84183 19.2146C3.84183 18.9582 3.93434 18.7362 4.11935 18.5485L5.66103 17.0069C5.83904 16.8343 6.05824 16.748 6.31863 16.748C6.57903 16.748 6.80385 16.8357 6.9931 17.011C7.18235 17.199 7.27698 17.4241 7.27698 17.6865C7.27698 17.9489 7.18235 18.1747 6.9931 18.3639L5.47643 19.8806C5.28863 20.0699 5.06242 20.1645 4.7978 20.1645C4.53319 20.1645 4.30704 20.0677 4.11935 19.8741ZM12 17.9601C10.3426 17.9601 8.93491 17.3811 7.77688 16.2231C6.61884 15.0651 6.03983 13.6574 6.03983 12C6.03983 10.3426 6.61884 8.93493 7.77688 7.7769C8.93491 6.61887 10.3426 6.03985 12 6.03985C13.6573 6.03985 15.065 6.61887 16.2231 7.7769C17.3811 8.93493 17.9601 10.3426 17.9601 12C17.9601 13.6574 17.3811 15.0651 16.2231 16.2231C15.065 17.3811 13.6573 17.9601 12 17.9601Z" fill="#D2AF69"/>
</svg>
