<svg
   width="127.99999"
   height="127.99999"
   viewBox="0 0 33.866664 33.866664"
   xmlns="http://www.w3.org/2000/svg">
  <g
     transform="translate(42.333332)">
    <path
       style="fill:#e3c063;fill-opacity:1;stroke-width:3.18743"
       d="m -25.399482,1.6893028 a 0.99434,0.99434 0 0 0 -0.994254,0.9942545 v 3.1036866 a 0.99434,0.99434 0 0 0 0.994254,0.9942545 0.99434,0.99434 0 0 0 0.993738,-0.9942545 V 2.6835573 a 0.99434,0.99434 0 0 0 -0.993738,-0.9942545 z m 10.116695,4.1325643 a 0.99434,0.99434 0 0 0 -0.702799,0.2909383 l -2.194698,2.1946981 a 0.99434,0.99434 0 0 0 0,1.4061157 0.99434,0.99434 0 0 0 1.406115,0 l 2.194698,-2.1946981 a 0.99434,0.99434 0 0 0 0,-1.4061157 0.99434,0.99434 0 0 0 -0.703316,-0.2909383 z m -20.209619,0.024805 a 0.99434,0.99434 0 0 0 -0.703316,0.2909384 0.99434,0.99434 0 0 0 0,1.4061157 l 2.194698,2.1946981 a 0.99434,0.99434 0 0 0 1.406115,0 0.99434,0.99434 0 0 0 0,-1.4061158 l -2.194698,-2.194698 a 0.99434,0.99434 0 0 0 -0.702799,-0.2909384 z m 10.092407,3.4369996 a 7.6498237,7.6498237 0 0 0 -7.649662,7.6496613 7.6498237,7.6498237 0 0 0 7.649662,7.649663 7.6498237,7.6498237 0 0 0 7.649663,-7.649663 7.6498237,7.6498237 0 0 0 -7.649663,-7.6496613 z m -14.245642,6.6554073 a 0.99434,0.99434 0 0 0 -0.994255,0.994254 0.99434,0.99434 0 0 0 0.994255,0.994255 h 3.10317 a 0.99434,0.99434 0 0 0 0.994254,-0.994255 0.99434,0.99434 0 0 0 -0.994254,-0.994254 z m 25.388115,0 a 0.99434,0.99434 0 0 0 -0.994255,0.994254 0.99434,0.99434 0 0 0 0.994255,0.994255 h 3.103169 a 0.99434,0.99434 0 0 0 0.994255,-0.994255 0.99434,0.99434 0 0 0 -0.994255,-0.994254 z m -3.240113,7.902877 a 0.99434,0.99434 0 0 0 -0.702799,0.290938 0.99434,0.99434 0 0 0 0,1.406116 l 2.194698,2.194181 a 0.99434,0.99434 0 0 0 1.405599,0 0.99434,0.99434 0 0 0 0,-1.405599 l -2.194181,-2.194698 a 0.99434,0.99434 0 0 0 -0.703317,-0.290938 z m -15.811438,0.0067 a 0.99434,0.99434 0 0 0 -0.703316,0.290956 l -2.194181,2.194698 a 0.99434,0.99434 0 0 0 0,1.405599 0.99434,0.99434 0 0 0 1.405599,0 l 2.194698,-2.194181 a 0.99434,0.99434 0 0 0 0,-1.406116 0.99434,0.99434 0 0 0 -0.7028,-0.290938 z m 7.909595,3.235461 a 0.99434,0.99434 0 0 0 -0.994254,0.993738 v 3.103686 a 0.99434,0.99434 0 0 0 0.994254,0.994255 0.99434,0.99434 0 0 0 0.993738,-0.994255 v -3.103668 a 0.99434,0.99434 0 0 0 -0.993738,-0.993738 z" />
  </g>
</svg>
