<?xml version="1.0" encoding="UTF-8" standalone="no"?>
<!-- Created with Inkscape (http://www.inkscape.org/) -->

<svg
   width="127.99999"
   height="127.99999"
   viewBox="0 0 33.866664 33.866664"
   version="1.1"
   id="svg1"
   xmlns="http://www.w3.org/2000/svg"
   xmlns:svg="http://www.w3.org/2000/svg">
  <defs
     id="defs1" />
  <g
     id="layer1"
     transform="translate(9.7873802e-8,-0.36605113)">
    <g
       id="g62"
       transform="translate(-0.45161539,-1.2239406)">
      <path
         id="path9-8"
         style="fill:#e3c063;fill-opacity:1;stroke-width:1.91246"
         d="m 12.381675,8.1535075 a 0.596604,0.596604 0 0 0 -0.596863,0.596346 v 1.8624185 a 0.596604,0.596604 0 0 0 0.596863,0.596346 0.596604,0.596604 0 0 0 0.595829,-0.596346 V 8.7498535 a 0.596604,0.596604 0 0 0 -0.595829,-0.596346 z m 6.069913,2.4794355 a 0.596604,0.596604 0 0 0 -0.421679,0.174666 l -1.316716,1.316716 a 0.596604,0.596604 0 0 0 0,0.843876 0.596604,0.596604 0 0 0 0.843359,0 l 1.316716,-1.317233 a 0.596604,0.596604 0 0 0 0,-0.843359 0.596604,0.596604 0 0 0 -0.42168,-0.174666 z m -12.1258746,0.01499 a 0.596604,0.596604 0 0 0 -0.4221964,0.174666 0.596604,0.596604 0 0 0 0,0.84336 l 1.3172322,1.316715 a 0.596604,0.596604 0 0 0 0.8433594,0 0.596604,0.596604 0 0 0 0,-0.843359 L 6.7473931,10.822595 A 0.596604,0.596604 0 0 0 6.3257134,10.647929 Z m 6.0554446,2.06189 a 4.5898942,4.5898942 0 0 0 -4.589901,4.5899 4.5898942,4.5898942 0 0 0 1.2459188,3.125908 c 0.9475055,-0.835297 2.1856822,-1.34768 3.5408692,-1.347722 h 0.0021 c 0.0033,9e-6 0.0065,-1.5e-5 0.0098,0 0.674128,-1.83344 1.980816,-3.322329 3.659724,-4.230232 a 4.5898942,4.5898942 0 0 0 -3.868497,-2.137854 z m -8.5472822,3.993554 a 0.596604,0.596604 0 0 0 -0.5968627,0.596346 0.596604,0.596604 0 0 0 0.5968627,0.596863 h 1.8619019 a 0.596604,0.596604 0 0 0 0.596346,-0.596863 0.596604,0.596604 0 0 0 -0.596346,-0.596346 z M 7.635711,21.44882 a 0.596604,0.596604 0 0 0 -0.4221965,0.174666 l -1.3161987,1.316716 a 0.596604,0.596604 0 0 0 0,0.843359 0.596604,0.596604 0 0 0 0.8433594,0 L 7.3726779,23.151558 C 7.5115289,22.59784 7.735513,22.07797 8.0320692,21.606433 A 0.596604,0.596604 0 0 0 7.635711,21.44882 Z" />
      <path
         id="path2-29"
         style="fill:#d4dce5;fill-opacity:1;stroke-width:3.0378;stroke-linecap:round;paint-order:stroke fill markers"
         d="m 20.036138,14.706849 c -3.31169,0 -6.09321,2.269543 -6.874315,5.338064 -0.193636,-0.02622 -0.388791,-0.03965 -0.584194,-0.04018 -2.454489,7.5e-5 -4.4441557,1.989948 -4.4439779,4.44444 8.11e-5,2.454304 1.9896719,4.443896 4.4439779,4.443968 0.121881,-4.56e-4 0,0 0.365121,0 v 0 h 7.093388 7.093387 v -0.01728 c 0.08136,0.0082 0.162936,0.01392 0.244632,0.01728 2.296923,-1.28e-4 4.158845,-1.862256 4.158728,-4.159176 -1.26e-4,-2.296756 -1.861977,-4.158612 -4.158728,-4.158741 -0.116227,0.0032 -0.232254,0.01192 -0.347778,0.02512 C 26.456174,17.254428 23.544545,14.7068 20.036138,14.7068 Z" />
    </g>
  </g>
</svg>
