<svg
   width="127.99999"
   height="127.99999"
   viewBox="0 0 33.866664 33.866664"
   xmlns="http://www.w3.org/2000/svg">
  <g
     transform="translate(9.7873802e-8,-42.699384)">
    <g
       transform="translate(-0.44411583,-1.6742209)">
      <path
         style="fill:#9abfcf;stroke-width:3.93095;stroke-linecap:round;paint-order:stroke fill markers"
         d="m 21.745099,47.046267 c -0.316141,0.02219 -0.487035,0.307534 -0.417718,0.73725 0.114456,0.709536 0.171729,1.427338 0.172255,2.147156 C 21.499523,57.412324 15.43431,63.477822 7.9526594,63.47765 6.9635361,63.47265 5.9794729,63.358835 5.017438,63.14003 4.3337082,62.984523 3.9216941,63.356722 4.1484127,64.020252 c 1.217612,3.563549 3.8416702,6.392485 7.1502953,7.917691 0.772592,-4.151088 4.424812,-7.319834 8.791884,-7.319967 h 0.0034 c 0.0065,1.9e-5 0.01331,-3.1e-5 0.01981,0 1.595115,-4.33826 5.303752,-7.534546 9.914124,-8.418952 -1.064596,-4.054703 -3.965005,-7.450012 -7.921997,-9.082994 -0.134132,-0.05535 -0.255494,-0.07716 -0.360874,-0.06976 z"
         transform="matrix(0.6,0,0,0.6,0.64667963,22.900902)" />
      <path
         style="fill:#d4dce5;fill-opacity:1;stroke-width:3.0378;stroke-linecap:round;paint-order:stroke fill markers"
         d="m 20.159974,57.299757 c -3.31169,0 -6.09321,2.269543 -6.874315,5.338064 -0.193636,-0.02622 -0.388791,-0.03965 -0.584194,-0.04018 -2.454489,7.5e-5 -4.4441558,1.989948 -4.443978,4.44444 8.11e-5,2.454304 1.989672,4.443896 4.443978,4.443968 0.121881,-4.56e-4 0,0 0.365121,0 v 0 h 7.093388 7.093387 v -0.01728 c 0.08136,0.0082 0.162936,0.01392 0.244632,0.01728 2.296923,-1.28e-4 4.158845,-1.862256 4.158728,-4.159176 -1.26e-4,-2.296756 -1.861977,-4.158612 -4.158728,-4.158741 -0.116227,0.0032 -0.232254,0.01192 -0.347778,0.02512 -0.570205,-3.345916 -3.481834,-5.893544 -6.990241,-5.893544 z" />
    </g>
  </g>
</svg>
