<svg width="17" height="18" viewBox="0 0 17 18" fill="none" xmlns="http://www.w3.org/2000/svg">
<path d="M11.5 8C11.0833 8 10.7292 7.85417 10.4375 7.5625C10.1458 7.27083 10 6.91667 10 6.5C10 6.21667 10.0792 5.92917 10.2375 5.6375C10.3958 5.34583 10.5667 5.07917 10.75 4.8375C10.9333 4.59583 11.1042 4.39583 11.2625 4.2375L11.5 4L11.7375 4.2375C11.8958 4.39583 12.0667 4.59583 12.25 4.8375C12.4333 5.07917 12.6042 5.34583 12.7625 5.6375C12.9208 5.92917 13 6.21667 13 6.5C13 6.91667 12.8542 7.27083 12.5625 7.5625C12.2708 7.85417 11.9167 8 11.5 8ZM15.5 5C15.0833 5 14.7292 4.85417 14.4375 4.5625C14.1458 4.27083 14 3.91667 14 3.5C14 3.21667 14.0792 2.92917 14.2375 2.6375C14.3958 2.34583 14.5667 2.07917 14.75 1.8375C14.9333 1.59583 15.1042 1.39583 15.2625 1.2375L15.5 1L15.7375 1.2375C15.8958 1.39583 16.0667 1.59583 16.25 1.8375C16.4333 2.07917 16.6042 2.34583 16.7625 2.6375C16.9208 2.92917 17 3.21667 17 3.5C17 3.91667 16.8542 4.27083 16.5625 4.5625C16.2708 4.85417 15.9167 5 15.5 5ZM15.5 11C15.0833 11 14.7292 10.8542 14.4375 10.5625C14.1458 10.2708 14 9.91667 14 9.5C14 9.21667 14.0792 8.92917 14.2375 8.6375C14.3958 8.34583 14.5667 8.07917 14.75 7.8375C14.9333 7.59583 15.1042 7.39583 15.2625 7.2375L15.5 7L15.7375 7.2375C15.8958 7.39583 16.0667 7.59583 16.25 7.8375C16.4333 8.07917 16.6042 8.34583 16.7625 8.6375C16.9208 8.92917 17 9.21667 17 9.5C17 9.91667 16.8542 10.2708 16.5625 10.5625C16.2708 10.8542 15.9167 11 15.5 11ZM5 18C3.61667 18 2.4375 17.5125 1.4625 16.5375C0.4875 15.5625 0 14.3833 0 13C0 12.2 0.175 11.4542 0.525 10.7625C0.875 10.0708 1.36667 9.48333 2 9V3C2 2.16667 2.29167 1.45833 2.875 0.875C3.45833 0.291667 4.16667 0 5 0C5.83333 0 6.54167 0.291667 7.125 0.875C7.70833 1.45833 8 2.16667 8 3V9C8.63333 9.48333 9.125 10.0708 9.475 10.7625C9.825 11.4542 10 12.2 10 13C10 14.3833 9.5125 15.5625 8.5375 16.5375C7.5625 17.5125 6.38333 18 5 18ZM2 13H8C8 12.5167 7.89583 12.0667 7.6875 11.65C7.47917 11.2333 7.18333 10.8833 6.8 10.6L6 10V3C6 2.71667 5.90417 2.47917 5.7125 2.2875C5.52083 2.09583 5.28333 2 5 2C4.71667 2 4.47917 2.09583 4.2875 2.2875C4.09583 2.47917 4 2.71667 4 3V10L3.2 10.6C2.81667 10.8833 2.52083 11.2333 2.3125 11.65C2.10417 12.0667 2 12.5167 2 13Z"/>
</svg>
