<svg width="24" height="24" viewBox="0 0 24 24" fill="none" xmlns="http://www.w3.org/2000/svg">
<mask id="mask0_95_7" style="mask-type:alpha" maskUnits="userSpaceOnUse" x="0" y="0" width="24" height="24">
<rect width="24" height="24"/>
</mask>
<g mask="url(#mask0_95_7)">
<path d="M18.75 8.65C18.3 9.1 17.7833 9.44167 17.2 9.675C16.6167 9.90833 16.0333 10.025 15.45 10.025C14.8667 10.025 14.2917 9.9125 13.725 9.6875C13.1583 9.4625 12.65 9.11667 12.2 8.65L10.325 6.775C10.075 6.525 9.79165 6.3375 9.47499 6.2125C9.15832 6.0875 8.83332 6.025 8.49999 6.025C8.16665 6.025 7.84165 6.0875 7.52499 6.2125C7.20832 6.3375 6.92499 6.525 6.67499 6.775L5.49999 7.95C5.29999 8.15 5.06665 8.24583 4.79999 8.2375C4.53332 8.22917 4.29999 8.125 4.09999 7.925C3.89999 7.725 3.79999 7.4875 3.79999 7.2125C3.79999 6.9375 3.89999 6.7 4.09999 6.5L5.24999 5.35C5.69999 4.9 6.20832 4.5625 6.77499 4.3375C7.34165 4.1125 7.91665 4 8.49999 4C9.08332 4 9.65415 4.1125 10.2125 4.3375C10.7708 4.5625 11.275 4.9 11.725 5.35L13.6 7.225C13.8667 7.49167 14.1583 7.6875 14.475 7.8125C14.7917 7.9375 15.1167 8 15.45 8C15.7833 8 16.1125 7.9375 16.4375 7.8125C16.7625 7.6875 17.0583 7.49167 17.325 7.225L18.5 6.05C18.7 5.85 18.9375 5.75 19.2125 5.75C19.4875 5.75 19.725 5.85 19.925 6.05C20.125 6.25 20.225 6.4875 20.225 6.7625C20.225 7.0375 20.125 7.275 19.925 7.475L18.75 8.65ZM18.75 13.65C18.3 14.1 17.7875 14.4375 17.2125 14.6625C16.6375 14.8875 16.0583 15 15.475 15C14.8917 15 14.3125 14.8875 13.7375 14.6625C13.1625 14.4375 12.65 14.1 12.2 13.65L10.325 11.775C10.075 11.525 9.79165 11.3375 9.47499 11.2125C9.15832 11.0875 8.83332 11.025 8.49999 11.025C8.16665 11.025 7.84165 11.0875 7.52499 11.2125C7.20832 11.3375 6.92499 11.525 6.67499 11.775L5.49999 12.95C5.31665 13.1333 5.08749 13.2292 4.81249 13.2375C4.53749 13.2458 4.29999 13.15 4.09999 12.95C3.89999 12.7667 3.79582 12.5333 3.78749 12.25C3.77915 11.9667 3.87499 11.725 4.07499 11.525L5.24999 10.35C5.69999 9.9 6.20832 9.5625 6.77499 9.3375C7.34165 9.1125 7.91665 9 8.49999 9C9.08332 9 9.65415 9.1125 10.2125 9.3375C10.7708 9.5625 11.275 9.9 11.725 10.35L13.6 12.225C13.8667 12.4917 14.1583 12.6875 14.475 12.8125C14.7917 12.9375 15.1167 13 15.45 13C15.7833 13 16.1125 12.9375 16.4375 12.8125C16.7625 12.6875 17.0583 12.4917 17.325 12.225L18.5 11.05C18.7 10.85 18.9375 10.75 19.2125 10.75C19.4875 10.75 19.725 10.85 19.925 11.05C20.125 11.25 20.225 11.4875 20.225 11.7625C20.225 12.0375 20.125 12.275 19.925 12.475L18.75 13.65ZM18.725 18.65C18.275 19.1 17.7667 19.4375 17.2 19.6625C16.6333 19.8875 16.0583 20 15.475 20C14.8917 20 14.3125 19.8875 13.7375 19.6625C13.1625 19.4375 12.65 19.1 12.2 18.65L10.3 16.775C10.05 16.525 9.76665 16.3375 9.44999 16.2125C9.13332 16.0875 8.80832 16.025 8.47499 16.025C8.14165 16.025 7.81665 16.0875 7.49999 16.2125C7.18332 16.3375 6.89999 16.525 6.64999 16.775L5.47499 17.95C5.29165 18.1333 5.06249 18.2292 4.78749 18.2375C4.51249 18.2458 4.27499 18.15 4.07499 17.95C3.89165 17.7667 3.79999 17.5333 3.79999 17.25C3.79999 16.9667 3.89165 16.7333 4.07499 16.55L5.24999 15.35C5.69999 14.9 6.20832 14.5625 6.77499 14.3375C7.34165 14.1125 7.91665 14 8.49999 14C9.08332 14 9.65415 14.1125 10.2125 14.3375C10.7708 14.5625 11.275 14.9 11.725 15.35L13.6 17.225C13.8667 17.4917 14.1625 17.6875 14.4875 17.8125C14.8125 17.9375 15.1417 18 15.475 18C15.8083 18 16.1333 17.9375 16.45 17.8125C16.7667 17.6875 17.0583 17.4917 17.325 17.225L18.5 16.05C18.7 15.85 18.9333 15.7542 19.2 15.7625C19.4667 15.7708 19.7 15.875 19.9 16.075C20.0833 16.275 20.1792 16.5083 20.1875 16.775C20.1958 17.0417 20.1 17.275 19.9 17.475L18.725 18.65Z"/>
</g>
</svg>
