<svg width="18" height="23" viewBox="0 0 18 23" fill="none" xmlns="http://www.w3.org/2000/svg">
<path d="M1.87448 14.3109C1.57121 14.3109 1.31578 14.2071 1.10818 13.9995C0.900561 13.7919 0.796753 13.5365 0.796753 13.2332C0.796753 12.9299 0.900561 12.6745 1.10818 12.4669C1.31578 12.2593 1.57121 12.1555 1.87448 12.1555H16.1256C16.4288 12.1555 16.6843 12.2593 16.8919 12.4669C17.0995 12.6745 17.2033 12.9299 17.2033 13.2332C17.2033 13.5365 17.0995 13.7919 16.8919 13.9995C16.6843 14.2071 16.4288 14.3109 16.1256 14.3109H1.87448ZM1.87448 11.1555C1.57121 11.1555 1.31578 11.0517 1.10818 10.8441C0.900561 10.6364 0.796753 10.381 0.796753 10.0778C0.796753 9.77449 0.900561 9.51906 1.10818 9.31146C1.31578 9.10384 1.57121 9.00004 1.87448 9.00004H16.1256C16.4288 9.00004 16.6843 9.10384 16.8919 9.31146C17.0995 9.51906 17.2033 9.77449 17.2033 10.0778C17.2033 10.381 17.0995 10.6364 16.8919 10.8441C16.6843 11.0517 16.4288 11.1555 16.1256 11.1555H1.87448ZM9.00003 22.4783C8.69676 22.4783 8.44133 22.3745 8.23373 22.1669C8.02611 21.9593 7.9223 21.7039 7.9223 21.4006V19.3979L7.1359 20.1843C6.93662 20.3836 6.68535 20.4832 6.3821 20.4832C6.07884 20.4832 5.82756 20.3836 5.62828 20.1843C5.42901 19.985 5.32938 19.7337 5.32938 19.4305C5.32938 19.1272 5.42901 18.876 5.62828 18.6767L8.1984 16.1066C8.31035 15.9946 8.43363 15.9138 8.56823 15.8642C8.70283 15.8145 8.84477 15.7897 8.99405 15.7897C9.14332 15.7897 9.28625 15.8145 9.42285 15.8642C9.55945 15.9138 9.68373 15.9946 9.79568 16.1066L12.3718 18.6767C12.571 18.876 12.6739 19.124 12.6802 19.421C12.6865 19.7179 12.5837 19.9723 12.3718 20.1843C12.1725 20.3836 11.9244 20.4864 11.6275 20.4927C11.3306 20.499 11.0761 20.4026 10.8642 20.2033L10.0778 19.4359V21.4006C10.0778 21.7039 9.97395 21.9593 9.76633 22.1669C9.55873 22.3745 9.30329 22.4783 9.00003 22.4783ZM8.99405 7.51526C8.84477 7.51526 8.70283 7.49044 8.56823 7.44079C8.43363 7.39115 8.31035 7.31036 8.1984 7.19841L5.62828 4.62829C5.42901 4.42902 5.32938 4.17775 5.32938 3.87449C5.32938 3.57122 5.42901 3.31995 5.62828 3.12068C5.82756 2.9214 6.07884 2.82176 6.3821 2.82176C6.68535 2.82176 6.93662 2.9214 7.1359 3.12068L7.9223 3.90708V1.90439C7.9223 1.60112 8.02611 1.34568 8.23373 1.13808C8.44133 0.930468 8.69676 0.82666 9.00003 0.82666C9.30329 0.82666 9.55873 0.930468 9.76633 1.13808C9.97395 1.34568 10.0778 1.60112 10.0778 1.90439V3.90708L10.8642 3.12068C11.0634 2.9214 11.3147 2.82176 11.618 2.82176C11.9212 2.82176 12.1725 2.9214 12.3718 3.12068C12.575 3.32395 12.6767 3.57622 12.6767 3.87749C12.6767 4.17875 12.575 4.42902 12.3718 4.62829L9.79568 7.19841C9.68373 7.31036 9.55945 7.39115 9.42285 7.44079C9.28625 7.49044 9.14332 7.51526 8.99405 7.51526Z"/>
</svg>
