<?xml version="1.0" encoding="UTF-8" standalone="no"?>
<!-- Created with Inkscape (http://www.inkscape.org/) -->

<svg
   width="127.99999"
   height="127.99999"
   viewBox="0 0 33.866664 33.866664"
   version="1.1"
   id="svg1"
   xmlns="http://www.w3.org/2000/svg"
   xmlns:svg="http://www.w3.org/2000/svg">
  <defs
     id="defs1" />
  <g
     id="layer1"
     transform="translate(-42.641801,-42.436502)">
    <g
       id="g3"
       transform="translate(3.6389904e-5,-3.3748568)">
      <path
         id="path13-6-7"
         style="fill:#9abfcf;stroke-width:2.35857;stroke-linecap:round;paint-order:stroke fill markers"
         d="m 55.89142,49.191559 c -0.189684,0.01331 -0.292221,0.184521 -0.25063,0.44235 0.06867,0.425722 0.103037,0.856403 0.103353,1.288294 -6.8e-5,4.48899 -3.639196,8.128289 -8.128186,8.128186 -0.593474,-0.003 -1.183912,-0.07129 -1.761133,-0.202572 -0.410238,-0.0933 -0.657447,0.130015 -0.521415,0.528133 0.730567,2.13813 2.305002,3.835491 4.290177,4.750615 0.463555,-2.490653 2.654887,-4.391901 5.27513,-4.39198 h 0.002 c 0.0039,1.1e-5 0.008,-1.9e-5 0.01189,0 0.957069,-2.602956 3.182251,-4.520728 5.948475,-5.051372 -0.638758,-2.432821 -2.379003,-4.470007 -4.753199,-5.449796 -0.08048,-0.03321 -0.153296,-0.0463 -0.216524,-0.04186 z" />
      <path
         id="path2-29-4-6"
         style="fill:#d4dce5;fill-opacity:1;stroke-width:3.0378;stroke-linecap:round;paint-order:stroke fill markers"
         d="m 62.357356,55.362669 c -3.311682,0 -6.092896,2.269144 -6.873999,5.337659 -0.193636,-0.02622 -0.389057,-0.03926 -0.58446,-0.03979 -2.454485,7.5e-5 -4.443834,1.989685 -4.443657,4.444173 8.1e-5,2.4543 1.989355,4.444101 4.443657,4.444173 0.121881,-4.56e-4 2.33e-4,0 0.365352,0 h 0.462843 c 0.189319,0 0.3483,-0.154726 0.390595,-0.339025 0.06224,-0.271222 0.173607,-0.499333 0.290678,-0.72861 0.177257,-0.347142 0.393108,-0.67823 0.603581,-0.976684 0.420947,-0.596912 0.836125,-1.072286 0.836125,-1.072286 l 0.697115,-0.803052 0.699182,0.803052 c 0,0 0.415178,0.475374 0.836125,1.072286 0.21047,0.298454 0.426326,0.629542 0.60358,0.976684 0.117867,0.230831 0.229949,0.460482 0.291941,0.734133 0.04109,0.181377 0.19752,0.333502 0.383764,0.333502 h 0.997578 1.435747 c 0.173427,0 0.345706,-0.138019 0.413169,-0.297567 0.04183,-0.09892 0.08886,-0.19152 0.135976,-0.283793 0.140788,-0.275716 0.308928,-0.530659 0.470772,-0.76016 0.323692,-0.459002 0.640271,-0.822172 0.640271,-0.822172 l 0.699182,-0.802535 0.697632,0.802535 c 0,0 0.318648,0.36317 0.642338,0.822172 0.161846,0.229501 0.327919,0.484444 0.468706,0.76016 0.04081,0.07992 0.08155,0.160085 0.118908,0.244386 0.07975,0.179986 0.276195,0.336974 0.473535,0.336974 h 0.897388 v -0.01757 c 0.08136,0.0082 0.162734,0.01421 0.24443,0.01757 2.296917,-1.28e-4 4.159036,-1.86252 4.158919,-4.159436 -1.26e-4,-2.296752 -1.862174,-4.158273 -4.158919,-4.158402 -0.116227,0.0032 -0.232259,0.0116 -0.347783,0.0248 -0.570203,-3.345908 -3.48187,-5.89318 -6.990271,-5.89318 z" />
      <path
         id="path1-8-2"
         style="fill:#3981c5;fill-opacity:1;stroke-width:1.58038;stroke-linecap:round;paint-order:stroke fill markers"
         d="m 67.319295,69.962919 c 0,0.630656 -0.522508,1.141912 -1.167053,1.141912 -0.644546,0 -1.167054,-0.511256 -1.167053,-1.141912 -1e-6,-0.630648 1.167053,-1.970232 1.167053,-1.970232 0,0 1.167053,1.339584 1.167053,1.970232 z" />
      <path
         id="path1-9-93-9"
         style="fill:#3981c5;fill-opacity:1;stroke-width:2.85246;stroke-linecap:round;paint-order:stroke fill markers"
         d="m 64.561855,74.237607 c 0,1.13828 -0.943084,2.061056 -2.106436,2.061056 -1.163354,0 -2.106437,-0.922776 -2.106436,-2.061056 -10e-7,-1.138272 2.106436,-3.556112 2.106436,-3.556112 0,0 2.106436,2.41784 2.106436,3.556112 z" />
      <path
         id="path1-9-0-6-1"
         style="fill:#3981c5;fill-opacity:1;stroke-width:2.10718;stroke-linecap:round;paint-order:stroke fill markers"
         d="m 60.102104,69.666959 c 0,0.840864 -0.696677,1.522536 -1.556071,1.522536 -0.859394,0 -1.55607,-0.681672 -1.55607,-1.522536 0,-0.840872 1.55607,-2.626984 1.55607,-2.626984 0,0 1.556071,1.786112 1.556071,2.626984 z" />
    </g>
  </g>
</svg>
