<?xml version="1.0" encoding="UTF-8" standalone="no"?>
<!-- Created with Inkscape (http://www.inkscape.org/) -->

<svg
   width="127.99999"
   height="127.99999"
   viewBox="0 0 33.866664 33.866664"
   version="1.1"
   id="svg1"
   xmlns="http://www.w3.org/2000/svg"
   xmlns:svg="http://www.w3.org/2000/svg">
  <defs
     id="defs1" />
  <g
     id="layer1"
     transform="translate(-42.641797,-84.824068)">
    <g
       id="g48"
       transform="translate(-4.7315064e-5,1.5980751)">
      <path
         id="path1"
         style="fill:#3981c5;fill-opacity:1;stroke-width:1.97547;stroke-linecap:round;paint-order:stroke fill markers"
         d="m 65.654975,105.47146 c 0,0.78832 -0.653135,1.42739 -1.458817,1.42739 -0.805682,0 -1.458817,-0.63907 -1.458816,-1.42739 -10e-7,-0.78831 1.458816,-2.46279 1.458816,-2.46279 0,0 1.458817,1.67448 1.458817,2.46279 z" />
      <path
         id="path1-9"
         style="fill:#3981c5;fill-opacity:1;stroke-width:3.56557;stroke-linecap:round;paint-order:stroke fill markers"
         d="m 62.208175,110.81482 c 0,1.42285 -1.178855,2.57632 -2.633046,2.57632 -1.454192,0 -2.633046,-1.15347 -2.633045,-2.57632 -1e-6,-1.42284 2.633045,-4.44514 2.633045,-4.44514 0,0 2.633046,3.0223 2.633046,4.44514 z" />
      <path
         id="path1-9-0"
         style="fill:#3981c5;fill-opacity:1;stroke-width:2.63397;stroke-linecap:round;paint-order:stroke fill markers"
         d="m 56.633486,105.10151 c 0,1.05108 -0.870846,1.90317 -1.945089,1.90317 -1.074242,0 -1.945088,-0.85209 -1.945087,-1.90317 -10e-7,-1.05109 1.945087,-3.28373 1.945087,-3.28373 0,0 1.945089,2.23264 1.945089,3.28373 z" />
      <path
         id="path2-2"
         style="fill:#d4dce5;fill-opacity:1;stroke-width:3.79725;stroke-linecap:round;paint-order:stroke fill markers"
         d="m 59.828906,86.927511 v 5.16e-4 c -4.1396,0 -7.616896,2.836823 -8.593274,6.672461 -0.242028,-0.03274 -0.485955,-0.04949 -0.730188,-0.05013 -3.067873,2.45e-4 -5.55474,2.487344 -5.554699,5.555217 -4.3e-5,3.067885 2.486824,5.554975 5.554699,5.555225 0.15232,-6.3e-4 1e-6,0 0.456303,0 h 0.765845 c 0.07385,0 0.145239,-0.0587 0.163814,-0.13023 0.07505,-0.28876 0.198529,-0.54623 0.331246,-0.80615 0.213728,-0.41857 0.477292,-0.8258 0.736389,-1.19321 0.518201,-0.73482 1.030945,-1.3224 1.030945,-1.3224 l 0.697632,-0.80047 0.699182,0.80047 c 0,0 0.512744,0.58758 1.030945,1.3224 0.2591,0.36741 0.522661,0.77464 0.736389,1.19321 0.122934,0.24076 0.237613,0.47923 0.313159,0.74259 0.03035,0.1058 0.136644,0.19379 0.247014,0.19379 h 2.114599 1.944584 c 0.115731,0 0.246829,-0.0862 0.297657,-0.19017 0.02269,-0.0464 0.04578,-0.0925 0.06925,-0.1385 0.16814,-0.32928 0.372192,-0.64069 0.570508,-0.9219 0.396629,-0.56244 0.787032,-1.00976 0.787032,-1.00976 l 0.697632,-0.80099 0.699182,0.80099 c 0,0 0.390399,0.44732 0.787032,1.00976 0.198316,0.28121 0.401851,0.59262 0.569991,0.9219 0.03654,0.0748 0.07357,0.14943 0.110071,0.22428 0.04504,0.094 0.143918,0.10358 0.156063,0.10439 h 2.177645 v -0.0217 c 0.101738,0.0102 0.203758,0.0175 0.305924,0.0217 2.871121,-3.2e-4 5.198389,-2.32805 5.198132,-5.199175 -3.17e-4,-2.870715 -2.327417,-5.197815 -5.198132,-5.198132 -0.145409,0.0042 -0.290575,0.01459 -0.435116,0.03101 -0.712753,-4.18234 -4.351954,-7.366992 -8.737451,-7.366992 z" />
    </g>
  </g>
</svg>
