<?xml version="1.0" encoding="UTF-8" standalone="no"?>
<!-- Created with Inkscape (http://www.inkscape.org/) -->

<svg
   width="127.99999"
   height="127.99999"
   viewBox="0 0 33.866664 33.866664"
   version="1.1"
   id="svg1"
   xmlns="http://www.w3.org/2000/svg"
   xmlns:svg="http://www.w3.org/2000/svg">
  <defs
     id="defs1" />
  <g
     id="layer1"
     transform="translate(-128.10703,-42.436502)">
    <g
       id="g43"
       transform="translate(-1.1281013e-4,1.0803932)">
      <path
         id="path13-6-1"
         style="fill:#9abfcf;stroke-width:2.35857;stroke-linecap:round;paint-order:stroke fill markers"
         d="m 141.35665,44.863757 c -0.18969,0.01331 -0.29222,0.184521 -0.25063,0.44235 0.0687,0.425722 0.10304,0.856403 0.10335,1.288294 -7e-5,4.48899 -3.63919,8.128289 -8.12818,8.128186 -0.59348,-0.003 -1.18392,-0.07129 -1.76114,-0.202572 -0.41024,-0.0933 -0.65744,0.130015 -0.52141,0.528133 0.73056,2.13813 2.305,3.835491 4.29017,4.750615 0.46356,-2.490653 2.65489,-4.391901 5.27514,-4.39198 h 0.002 c 0.004,1.1e-5 0.008,-1.9e-5 0.0119,0 0.95707,-2.602956 3.18225,-4.520728 5.94848,-5.051372 -0.63876,-2.432821 -2.37901,-4.470007 -4.7532,-5.449796 -0.0805,-0.03321 -0.1533,-0.0463 -0.21653,-0.04186 z" />
      <path
         id="path2-29-7-8"
         style="fill:#a7b5c5;stroke-width:3.0378;stroke-linecap:round;paint-order:stroke fill markers"
         d="m 147.82282,51.034871 c -3.31167,0 -6.09341,2.269672 -6.87452,5.338175 -0.19363,-0.02622 -0.38854,-0.03978 -0.58394,-0.04031 -2.45448,7.5e-5 -4.44435,1.989694 -4.44418,4.444174 7e-5,1.911721 1.20885,3.538299 2.90267,4.16512 0.17269,0.06391 0.36895,-0.03631 0.44907,-0.202055 0.025,-0.05166 0.0509,-0.102825 0.077,-0.153996 0.17726,-0.347135 0.39311,-0.67616 0.60358,-0.974617 0.42094,-0.596906 0.83561,-1.074353 0.83561,-1.074353 l 0.69918,-0.800468 0.69763,0.800468 c 0,0 0.41673,0.477447 0.83768,1.074353 0.21047,0.298457 0.42425,0.627481 0.60151,0.974617 0.0642,0.125812 0.12684,0.251795 0.18087,0.384473 0.0553,0.135847 0.2066,0.250631 0.35346,0.250631 h 1.89291 c 0,0 0.20051,-0.02317 0.23048,-0.226343 0.1154,-1.144905 1.09763,-2.055174 2.27014,-2.055172 1.24287,7e-6 2.27053,1.023069 2.27997,2.263945 l -0.001,-0.08165 c 0.009,0.08756 0.067,0.09804 0.0816,0.09922 h 0.19844 c 0,0 0.0391,-0.0167 0.0429,-0.0863 l -0.002,0.0863 h 5.1e-4 v -5.17e-4 c 0,-1.248626 1.03238,-2.281001 2.281,-2.280998 1.13763,-3e-6 2.09411,0.857144 2.25516,1.953886 0.0231,0.157242 0.15126,0.270993 0.30696,0.239262 1.89655,-0.386518 3.32445,-2.060309 3.32434,-4.071069 -1.2e-4,-2.296744 -1.86167,-4.158274 -4.1584,-4.158403 -0.11623,0.0032 -0.23226,0.0116 -0.34778,0.0248 -0.5702,-3.345898 -3.48188,-5.89318 -6.99027,-5.89318 z m 3.00705,14.081311 h 5.2e-4 v 0.0047 c -1.6e-4,-0.0016 -4e-4,-0.003 -5.2e-4,-0.0047 z" />
      <path
         id="path1-9-7-3-8"
         style="fill:#3981c5;fill-opacity:1;stroke-width:2.85246;stroke-linecap:round;paint-order:stroke fill markers"
         d="m 147.15886,69.654909 c 0,1.13828 -0.94309,2.061056 -2.10644,2.061056 -1.16335,0 -2.10643,-0.922776 -2.10643,-2.061056 0,-1.138272 2.10643,-3.556112 2.10643,-3.556112 0,0 2.10644,2.41784 2.10644,3.556112 z" />
      <path
         id="path1-9-0-4-6-5"
         style="fill:#3981c5;fill-opacity:1;stroke-width:2.10718;stroke-linecap:round;paint-order:stroke fill markers"
         d="m 143.04337,65.773253 c 0,0.840864 -0.69668,1.522536 -1.55608,1.522536 -0.85939,0 -1.55607,-0.681672 -1.55607,-1.522536 0,-0.840872 1.55607,-2.626984 1.55607,-2.626984 0,0 1.55608,1.786112 1.55608,2.626984 z" />
      <path
         id="path48-78-5-0"
         style="fill:#dff6f8;stroke-width:1.4816;stroke-linecap:round;paint-order:stroke fill markers"
         d="m 154.78668,65.221021 a 1.3546667,1.3546667 0 0 1 -1.35467,1.35468 1.3546667,1.3546667 0 0 1 -1.35467,-1.35468 1.3546667,1.3546667 0 0 1 1.35467,-1.354664 1.3546667,1.3546667 0 0 1 1.35467,1.354664 z" />
      <path
         id="path48-2-68-6-9"
         style="fill:#dff6f8;stroke-width:1.4816;stroke-linecap:round;paint-order:stroke fill markers"
         d="m 152.57753,69.686349 a 1.3546667,1.3546667 0 0 1 -1.35467,1.354664 1.3546667,1.3546667 0 0 1 -1.35467,-1.354664 1.3546667,1.3546667 0 0 1 1.35467,-1.354672 1.3546667,1.3546667 0 0 1 1.35467,1.354672 z" />
      <path
         id="path48-2-68-2-3-6"
         style="fill:#dff6f8;stroke-width:1.4816;stroke-linecap:round;paint-order:stroke fill markers"
         d="m 149.90662,65.221037 a 1.3546667,1.3546667 0 0 1 -1.35466,1.354664 1.3546667,1.3546667 0 0 1 -1.35467,-1.354664 1.3546667,1.3546667 0 0 1 1.35467,-1.35468 1.3546667,1.3546667 0 0 1 1.35466,1.35468 z" />
    </g>
  </g>
</svg>
