<?xml version="1.0" encoding="UTF-8" standalone="no"?>
<!-- Created with Inkscape (http://www.inkscape.org/) -->

<svg
   width="127.99999"
   height="127.99999"
   viewBox="0 0 33.866664 33.866664"
   version="1.1"
   id="svg1"
   xmlns="http://www.w3.org/2000/svg"
   xmlns:svg="http://www.w3.org/2000/svg">
  <defs
     id="defs1" />
  <g
     id="layer1"
     transform="translate(-128.10703,-84.824076)">
    <g
       id="g25"
       transform="translate(1.1742547e-4,1.5774452)">
      <path
         id="path2-45"
         style="fill:#d4dce5;fill-opacity:1;stroke-width:3.79725;stroke-linecap:round;paint-order:stroke fill markers"
         d="m 145.29386,87.254342 c -4.13961,0 -7.61638,2.837349 -8.59276,6.672978 -0.24205,-0.03278 -0.48593,-0.04997 -0.73019,-0.05064 -3.06808,9.4e-5 -5.55543,2.487643 -5.55521,5.555733 1e-4,2.700197 1.92867,4.944447 4.48241,5.444627 0.16921,0.0331 0.35232,-0.0812 0.4222,-0.23875 0.0508,-0.1144 0.10635,-0.22647 0.16381,-0.33899 0.21373,-0.41857 0.47729,-0.82425 0.73639,-1.19166 0.5182,-0.73482 1.03146,-1.3224 1.03146,-1.3224 l 0.69918,-0.80047 0.69712,0.80047 c 0,0 0.51326,0.58758 1.03146,1.3224 0.2591,0.36741 0.52266,0.77309 0.73639,1.19166 0.0467,0.0915 0.0922,0.18246 0.13487,0.27491 0.10262,0.2226 0.36134,0.41342 0.60669,0.41342 l 2.72748,-5.2e-4 c 0.0473,-0.002 0.24046,-0.0282 0.29714,-0.32194 l 0.001,-0.0109 -0.002,0.0326 c 0.15099,-1.29688 1.26554,-2.31925 2.59985,-2.31924 1.32529,0 2.43336,1.00899 2.59622,2.2934 l -0.003,-0.0372 c 0.0713,0.33305 0.25071,0.36111 0.27285,0.36329 l -0.24753,-5.2e-4 v 0.001 h 0.86144 l -0.17156,-5.2e-4 c 0.029,-0.002 0.14742,-0.027 0.185,-0.2651 2e-5,-1.7e-4 -2e-5,-3.5e-4 0,-5.2e-4 v -10e-4 c 1.3e-4,-0.001 3.9e-4,-0.002 5.2e-4,-0.004 l 0.002,-0.0124 v 0.004 c 0.14095,-1.30723 1.26217,-2.34094 2.60397,-2.34094 1.18436,-1e-5 2.19805,0.80494 2.51664,1.89291 0.0979,0.33448 0.38144,0.57078 0.71262,0.46044 2.06528,-0.68805 3.55444,-2.63601 3.55431,-4.932516 -1.5e-4,-2.87092 -2.3272,-5.19849 -5.19814,-5.19865 -0.14528,0.004 -0.29018,0.01502 -0.43459,0.03152 -0.71275,-4.182378 -4.35252,-7.366992 -8.73797,-7.366992 z" />
      <path
         id="path1-9-7"
         class="raindrop"
         style="fill:#3981c5;fill-opacity:1;stroke-width:3.56557;stroke-linecap:round;paint-order:stroke fill markers"
         d="m 145.04036,110.5295 c 0,1.42285 -1.17886,2.57632 -2.63305,2.57632 -1.45419,0 -2.63304,-1.15347 -2.63304,-2.57632 0,-1.42284 2.63304,-4.44514 2.63304,-4.44514 0,0 2.63305,3.0223 2.63305,4.44514 z" />
      <path
         id="path1-9-0-4"
         class="raindrop"
         style="fill:#3981c5;fill-opacity:1;stroke-width:2.63397;stroke-linecap:round;paint-order:stroke fill markers"
         d="m 139.89599,105.67743 c 0,1.05108 -0.87085,1.90317 -1.94509,1.90317 -1.07424,0 -1.94509,-0.85209 -1.94509,-1.90317 0,-1.05109 1.94509,-3.28373 1.94509,-3.28373 0,0 1.94509,2.23264 1.94509,3.28373 z" />
      <path
         id="path48-78"
         class="snowflake"
         style="fill:#d6eff7;fill-opacity:1;stroke-width:1.852;stroke-linecap:round;paint-order:stroke fill markers"
         d="m 154.57513,104.98714 a 1.6933334,1.6933334 0 0 1 -1.69334,1.69335 1.6933334,1.6933334 0 0 1 -1.69333,-1.69335 1.6933334,1.6933334 0 0 1 1.69333,-1.69333 1.6933334,1.6933334 0 0 1 1.69334,1.69333 z" />
      <path
         id="path48-2-68"
         class="snowflake"
         style="fill:#d6eff7;fill-opacity:1;stroke-width:1.852;stroke-linecap:round;paint-order:stroke fill markers"
         d="m 151.81369,110.5688 a 1.6933334,1.6933334 0 0 1 -1.69333,1.69333 1.6933334,1.6933334 0 0 1 -1.69334,-1.69333 1.6933334,1.6933334 0 0 1 1.69334,-1.69334 1.6933334,1.6933334 0 0 1 1.69333,1.69334 z" />
      <path
         id="path48-2-68-2"
         class="snowflake"
         style="fill:#d6eff7;fill-opacity:1;stroke-width:1.852;stroke-linecap:round;paint-order:stroke fill markers"
         d="m 148.47506,104.98716 a 1.6933334,1.6933334 0 0 1 -1.69333,1.69333 1.6933334,1.6933334 0 0 1 -1.69334,-1.69333 1.6933334,1.6933334 0 0 1 1.69334,-1.69335 1.6933334,1.6933334 0 0 1 1.69333,1.69335 z" />
    </g>
  </g>
</svg>
