<?xml version="1.0" encoding="UTF-8" standalone="no"?>
<!-- Created with Inkscape (http://www.inkscape.org/) -->

<svg
   width="127.99999"
   height="127.99999"
   viewBox="0 0 33.866664 33.866664"
   version="1.1"
   id="svg1"
   xmlns="http://www.w3.org/2000/svg"
   xmlns:svg="http://www.w3.org/2000/svg">
  <defs
     id="defs1" />
  <g
     id="layer1"
     transform="translate(-84.975129,-42.436502)">
    <g
       id="g12"
       transform="translate(0,2.1781876)">
      <path
         id="path13-6-9"
         style="fill:#9abfcf;stroke-width:2.35857;stroke-linecap:round;paint-order:stroke fill markers"
         d="m 98.224749,44.304113 c -0.189684,0.01331 -0.292221,0.184521 -0.25063,0.44235 0.06867,0.425722 0.103037,0.856403 0.103353,1.288294 -6.8e-5,4.48899 -3.639196,8.128289 -8.128186,8.128186 -0.593474,-0.003 -1.183912,-0.07129 -1.761133,-0.202572 -0.410238,-0.0933 -0.657447,0.130015 -0.521415,0.528133 0.730567,2.13813 2.305002,3.835491 4.290177,4.750615 0.463555,-2.490653 2.654887,-4.391901 5.27513,-4.39198 h 0.002 c 0.0039,1.1e-5 0.008,-1.9e-5 0.01189,0 0.957069,-2.602956 3.182245,-4.520728 5.948475,-5.051372 -0.63876,-2.432821 -2.37901,-4.470007 -4.753199,-5.449796 -0.08048,-0.03321 -0.153296,-0.0463 -0.216524,-0.04186 z" />
      <path
         id="path2-29-2-1"
         style="fill:#d4dce5;fill-opacity:1;stroke-width:3.0378;stroke-linecap:round;paint-order:stroke fill markers"
         d="m 104.69069,50.475222 c -3.31168,0 -6.092901,2.269147 -6.874001,5.337659 -0.19364,-0.02622 -0.38906,-0.03926 -0.58446,-0.03979 -2.45448,7.5e-5 -4.44384,1.989688 -4.44366,4.444174 7.2e-5,2.070245 1.415566,3.809902 3.331606,4.30369 0.356532,0.09188 0.650285,-0.189222 0.761372,-0.539121 0.29288,-0.922509 1.162898,-1.601396 2.175372,-1.601394 1.148021,4e-6 2.111921,0.87271 2.259801,1.983811 0.0217,0.163053 0.153,0.297187 0.3175,0.297187 h 0.20389 c 0.2038,0 0.3659,-0.166528 0.39919,-0.367357 0.1786,-1.077453 1.12761,-1.913637 2.25134,-1.913641 1.15758,1.4e-5 2.12799,0.887351 2.26332,2.011691 0.0178,0.147933 0.13689,0.269307 0.28586,0.269307 h 0.2608 c 0.18789,0 0.33755,-0.153349 0.36587,-0.338915 0.16647,-1.091144 1.12226,-1.942078 2.25586,-1.942083 1.09163,-1.1e-5 2.01679,0.789112 2.23218,1.821935 0.0511,0.244781 0.25086,0.44455 0.49832,0.407413 2.00136,-0.300336 3.53692,-2.02275 3.53681,-4.107786 -1.2e-4,-2.29675 -1.86217,-4.158274 -4.15892,-4.158403 -0.11622,0.0032 -0.23226,0.0116 -0.34778,0.0248 -0.5702,-3.345903 -3.48187,-5.893177 -6.99027,-5.893177 z" />
      <path
         id="path48-7-9"
         class="snowflake"
         style="fill:#d6eff7;fill-opacity:1;stroke-width:1.4816;stroke-linecap:round;paint-order:stroke fill markers"
         d="m 111.27442,64.661352 a 1.3546667,1.3546667 0 0 1 -1.35468,1.354672 1.3546667,1.3546667 0 0 1 -1.35466,-1.354672 1.3546667,1.3546667 0 0 1 1.35466,-1.354664 1.3546667,1.3546667 0 0 1 1.35468,1.354664 z" />
      <path
         id="path48-2-5-4"
         class="snowflake"
         style="fill:#d6eff7;fill-opacity:1;stroke-width:1.4816;stroke-linecap:round;paint-order:stroke fill markers"
         d="m 108.55195,68.725352 a 1.3546667,1.3546667 0 0 1 -1.35466,1.354664 1.3546667,1.3546667 0 0 1 -1.35467,-1.354664 1.3546667,1.3546667 0 0 1 1.35467,-1.354672 1.3546667,1.3546667 0 0 1 1.35466,1.354672 z" />
      <path
         id="path48-2-6-9-7"
         class="snowflake"
         style="fill:#d6eff7;fill-opacity:1;stroke-width:1.4816;stroke-linecap:round;paint-order:stroke fill markers"
         d="m 103.13329,68.725352 a 1.3546667,1.3546667 0 0 1 -1.35467,1.354664 1.3546667,1.3546667 0 0 1 -1.35467,-1.354664 1.3546667,1.3546667 0 0 1 1.35467,-1.354672 1.3546667,1.3546667 0 0 1 1.35467,1.354672 z" />
      <path
         id="path48-4-2-8"
         class="snowflake"
         style="fill:#d6eff7;fill-opacity:1;stroke-width:1.4816;stroke-linecap:round;paint-order:stroke fill markers"
         d="m 105.84262,64.661352 a 1.3546667,1.3546667 0 0 1 -1.35466,1.354672 1.3546667,1.3546667 0 0 1 -1.35466,-1.354672 1.3546667,1.3546667 0 0 1 1.35466,-1.354664 1.3546667,1.3546667 0 0 1 1.35466,1.354664 z" />
      <path
         id="path48-4-7-2-4"
         class="snowflake"
         style="fill:#d6eff7;fill-opacity:1;stroke-width:1.4816;stroke-linecap:round;paint-order:stroke fill markers"
         d="m 100.41084,64.661352 a 1.3546667,1.3546667 0 0 1 -1.354671,1.354672 1.3546667,1.3546667 0 0 1 -1.35467,-1.354672 1.3546667,1.3546667 0 0 1 1.35467,-1.354664 1.3546667,1.3546667 0 0 1 1.354671,1.354664 z" />
    </g>
  </g>
</svg>
