<svg
   width="127.99999"
   height="127.99999"
   viewBox="0 0 33.866664 33.866664"
   xmlns="http://www.w3.org/2000/svg">
  <g
     transform="translate(-85.850618,-84.824076)">
    <g
       transform="translate(-42.333104,0.39973898)">
      <path
         style="fill:#d4dce5;fill-opacity:1;stroke-width:3.79725;stroke-linecap:round;paint-order:stroke fill markers"
         d="m 145.37097,89.104639 c -4.13957,0 -7.61641,2.836822 -8.59275,6.672461 -0.24205,-0.0328 -0.48646,-0.04953 -0.73071,-0.05013 -3.06812,9e-5 -5.55492,2.48712 -5.5547,5.55522 9e-5,2.77874 2.04178,5.07526 4.70617,5.4839 0.2803,0.043 0.50713,-0.17809 0.56483,-0.45527 0.24709,-1.18695 1.30894,-2.09187 2.56418,-2.09186 1.29549,0 2.38584,0.96356 2.58641,2.20659 0.0364,0.22528 0.21816,0.41186 0.44648,0.41186 h 0.78135 c 0.19662,0 0.3534,-0.16041 0.38034,-0.35502 0.17587,-1.27043 1.27945,-2.26343 2.59467,-2.26343 1.33285,0 2.448,1.01972 2.60088,2.31459 0.0197,0.16683 0.1545,0.30386 0.32246,0.30386 h 0.89865 c 0.19214,0 0.3453,-0.15649 0.37104,-0.34675 0.1724,-1.27428 1.27824,-2.2717 2.59622,-2.2717 1.30552,-10e-6 2.39933,0.9796 2.58744,2.23656 l -0.004,-0.0419 c 0.0732,0.29593 0.20212,0.38684 0.25994,0.41341 2.77458,-0.10948 4.99157,-2.38744 4.99142,-5.18883 -1.5e-4,-2.87093 -2.32719,-5.197975 -5.19813,-5.198135 -0.14528,0.004 -0.29071,0.01502 -0.43512,0.03152 -0.71275,-4.182386 -4.35194,-7.366992 -8.73745,-7.366992 z" />
        <path
           class="snowflake"
           style="fill:#d6eff7;fill-opacity:1;stroke-width:1.852;stroke-linecap:round;paint-order:stroke fill markers"
           d="m 153.60035,106.8374 a 1.6933334,1.6933334 0 0 1 -1.69334,1.69334 1.6933334,1.6933334 0 0 1 -1.69333,-1.69334 1.6933334,1.6933334 0 0 1 1.69333,-1.69333 1.6933334,1.6933334 0 0 1 1.69334,1.69333 z" />
        <path
           class="snowflake"
           style="fill:#d6eff7;fill-opacity:1;stroke-width:1.852;stroke-linecap:round;paint-order:stroke fill markers"
           d="m 150.19727,111.9174 a 1.6933334,1.6933334 0 0 1 -1.69333,1.69333 1.6933334,1.6933334 0 0 1 -1.69334,-1.69333 1.6933334,1.6933334 0 0 1 1.69334,-1.69334 1.6933334,1.6933334 0 0 1 1.69333,1.69334 z" />
        <path
           class="snowflake"
           style="fill:#d6eff7;fill-opacity:1;stroke-width:1.852;stroke-linecap:round;paint-order:stroke fill markers"
           d="m 143.42394,111.9174 a 1.6933334,1.6933334 0 0 1 -1.69333,1.69333 1.6933334,1.6933334 0 0 1 -1.69334,-1.69333 1.6933334,1.6933334 0 0 1 1.69334,-1.69334 1.6933334,1.6933334 0 0 1 1.69333,1.69334 z" />
        <path
           class="snowflake"
           style="fill:#d6eff7;fill-opacity:1;stroke-width:1.852;stroke-linecap:round;paint-order:stroke fill markers"
           d="m 146.81061,106.8374 a 1.6933334,1.6933334 0 0 1 -1.69333,1.69334 1.6933334,1.6933334 0 0 1 -1.69333,-1.69334 1.6933334,1.6933334 0 0 1 1.69333,-1.69333 1.6933334,1.6933334 0 0 1 1.69333,1.69333 z" />
        <path
           class="snowflake"
           style="fill:#d6eff7;fill-opacity:1;stroke-width:1.852;stroke-linecap:round;paint-order:stroke fill markers"
           d="m 140.02088,106.8374 a 1.6933334,1.6933334 0 0 1 -1.69333,1.69334 1.6933334,1.6933334 0 0 1 -1.69334,-1.69334 1.6933334,1.6933334 0 0 1 1.69334,-1.69333 1.6933334,1.6933334 0 0 1 1.69333,1.69333 z" />
      </g>
    </g>
  </g>
</svg>
