<?xml version="1.0" encoding="UTF-8" standalone="no"?>
<!-- Created with Inkscape (http://www.inkscape.org/) -->

<svg
   width="127.99999"
   height="127.99999"
   viewBox="0 0 33.866664 33.866664"
   version="1.1"
   id="svg1"
   xmlns="http://www.w3.org/2000/svg"
   xmlns:svg="http://www.w3.org/2000/svg">
  <defs
     id="defs1" />
  <g
     id="layer1"
     transform="translate(-214.64046,-42.436502)">
    <g
       id="g21"
       transform="translate(-0.76408415,-1.7195483)">
      <path
         id="path13-6-3"
         style="fill:#9abfcf;stroke-width:2.35857;stroke-linecap:round;paint-order:stroke fill markers"
         d="m 228.65425,47.479114 c -0.18969,0.01331 -0.29222,0.184521 -0.25063,0.44235 0.0687,0.425722 0.10304,0.856403 0.10335,1.288294 -7e-5,4.48899 -3.63919,8.128289 -8.12818,8.128186 -0.59348,-0.003 -1.18392,-0.07129 -1.76114,-0.202572 -0.41024,-0.0933 -0.65744,0.130015 -0.52141,0.528133 0.73056,2.13813 2.305,3.835491 4.29017,4.750615 0.46356,-2.490653 2.65489,-4.391901 5.27514,-4.39198 h 0.002 c 0.004,1.1e-5 0.008,-1.9e-5 0.0119,0 0.95707,-2.602956 3.18225,-4.520728 5.94848,-5.051372 -0.63876,-2.432821 -2.37901,-4.470007 -4.7532,-5.449796 -0.0805,-0.03321 -0.1533,-0.0463 -0.21653,-0.04186 z" />
      <path
         id="path2-29-92-6"
         style="fill:#d4dce5;fill-opacity:1;stroke-width:3.0378;stroke-linecap:round;paint-order:stroke fill markers"
         d="m 235.12081,53.650224 c -3.31168,0 -6.09342,2.269669 -6.87452,5.338175 -0.19364,-0.02622 -0.38854,-0.03978 -0.58394,-0.04031 -2.45448,7.5e-5 -4.44435,1.990213 -4.44418,4.44469 6e-5,1.800523 1.07156,3.349755 2.61121,4.047815 0.28839,0.130751 0.60335,-0.04546 0.68575,-0.351399 l 1.05575,-3.920691 c 0.16277,-0.604122 0.72206,-1.031495 1.34772,-1.029395 l 4.43746,0.01602 c 0.86946,0.0029 1.53291,0.876156 1.30276,1.714624 l -0.43718,1.595768 h 0.0563 c 0.98316,6e-6 1.57757,1.27446 0.94515,2.027266 -0.18356,0.320577 0.097,0.34221 0.13282,0.343649 h 3.3636 c 0.0462,-0.001 0.24215,-0.02386 0.4222,-0.323495 l -0.0486,0.09509 c 0.13494,-0.256476 0.28892,-0.497259 0.4408,-0.712618 0.32369,-0.459001 0.64233,-0.822689 0.64233,-0.822689 l 0.69763,-0.800468 0.69919,0.800468 c 0,0 0.31658,0.363688 0.64026,0.822689 0.16185,0.2295 0.33,0.485996 0.47078,0.761711 0.001,0.0026 0.003,0.0052 0.004,0.0078 0.067,0.112551 0.22311,0.128319 0.31006,0.127641 2.04078,-0.265447 3.619,-2.001815 3.6189,-4.114995 -1.3e-4,-2.296741 -1.86167,-4.15879 -4.15841,-4.158919 -0.11622,0.0032 -0.23225,0.01212 -0.34778,0.02532 -0.5702,-3.345901 -3.48188,-5.893697 -6.99027,-5.893697 z" />
      <path
         id="rect2-7-31-3"
         style="fill:#f3de80;fill-opacity:1;stroke-width:4.92224;stroke-linecap:round;paint-order:stroke fill markers"
         d="m 228.46529,63.409443 -1.54959,5.751448 a 0.31128785,0.31128785 0 0 0 0.29725,0.392248 l 1.28279,0.01368 -0.88065,4.820888 a 0.24888751,0.24888751 0 0 0 0.43541,0.204816 l 6.46402,-7.694968 a 0.30833354,0.30833354 0 0 0 -0.23608,-0.506664 h -1.2711 l 0.75926,-2.766424 a 0.42970314,0.42970314 0 0 0 -0.41292,-0.54344 l -4.43878,-0.01488 a 0.4640263,0.4640263 0 0 0 -0.44961,0.343304 z" />
      <path
         id="path1-5-9-2"
         class="raindrop"
         style="fill:#3981c5;fill-opacity:1;stroke-width:1.58038;stroke-linecap:round;paint-order:stroke fill markers"
         d="m 242.04095,68.651267 c 0,0.630656 -0.52251,1.141912 -1.16705,1.141912 -0.64455,0 -1.16705,-0.511256 -1.16705,-1.141912 0,-0.630648 1.16705,-1.970224 1.16705,-1.970224 0,0 1.16705,1.339576 1.16705,1.970224 z" />
      <path
         id="path1-9-9-4-0"
         class="raindrop"
         style="fill:#3981c5;fill-opacity:1;stroke-width:2.85246;stroke-linecap:round;paint-order:stroke fill markers"
         d="m 238.88829,72.639435 c 0,1.13828 -0.94309,2.061056 -2.10643,2.061056 -1.16337,0 -2.10644,-0.922776 -2.10644,-2.061056 0,-1.138272 2.10644,-3.556112 2.10644,-3.556112 0,0 2.10643,2.41784 2.10643,3.556112 z" />
    </g>
  </g>
</svg>
