<svg
   width="127.99999"
   height="127.99999"
   viewBox="0 0 33.866664 33.866664"
   xmlns="http://www.w3.org/2000/svg">
  <g
     transform="translate(-171.18851,-84.824076)">
    <g
       transform="translate(86.044104,-0.10960473)">
      <path
         style="fill:#d4dce5;fill-opacity:1;stroke-width:3.79725;stroke-linecap:round;paint-order:stroke fill markers"
         d="m 102.33122,88.95116 v 5.16e-4 c -4.139611,0 -7.616376,2.836815 -8.592756,6.672461 -0.242029,-0.03274 -0.485955,-0.04949 -0.730188,-0.05013 -3.06808,-4e-5 -5.55526,2.487143 -5.555216,5.555223 -3.7e-5,3.06808 2.487141,5.55525 5.555216,5.55521 0.15232,-6.4e-4 0,0 0.456303,0 h 2.472541 a 0.93544269,0.93544269 142.53322 0 0 0.903287,-0.69228 l 1.491575,-5.54093 c 0.176287,-0.654279 0.781355,-1.114511 1.458826,-1.113111 h 0.0021 l 5.546942,0.01964 c 0.94024,0.0032 1.655,0.942801 1.40612,1.849501 l -0.6289,2.2872 h 0.37723 c 1.04876,1e-5 1.67812,1.35091 1.00356,2.15387 l -0.70873,0.84383 a 0.11702019,0.11702019 65.01347 0 0 0.0896,0.19228 h 4.31916 v -0.0217 c 0.10174,0.0102 0.20376,0.0175 0.30593,0.0217 2.87132,-3e-5 5.1989,-2.32784 5.19865,-5.19916 -3.1e-4,-2.870921 -2.32773,-5.198105 -5.19865,-5.198135 -0.14524,0.0043 -0.29023,0.01461 -0.4346,0.03101 -0.71276,-4.18235 -4.35247,-7.366992 -8.73797,-7.366992 z" />
      <path
         style="fill:#f3de80;fill-opacity:1;stroke-width:6.1528;stroke-linecap:round;paint-order:stroke fill markers"
         d="m 99.226847,100.69302 -1.936982,7.18931 a 0.38910981,0.38910981 0 0 0 0.371555,0.49031 l 1.603487,0.0171 -1.100803,6.02611 a 0.31110939,0.31110939 0 0 0 0.544254,0.25602 l 8.080032,-9.61871 a 0.38541692,0.38541692 0 0 0 -0.2951,-0.63333 h -1.58889 l 0.94908,-3.45803 a 0.53712892,0.53712892 0 0 0 -0.51615,-0.6793 l -5.548464,-0.0186 a 0.58003287,0.58003287 0 0 0 -0.562019,0.42913 z" />
    </g>
  </g>
</svg>
