<?xml version="1.0" encoding="UTF-8" standalone="no"?>
<!-- Created with Inkscape (http://www.inkscape.org/) -->

<svg
   width="127.99999"
   height="127.99999"
   viewBox="0 0 33.866664 33.866664"
   version="1.1"
   id="svg1"
   xmlns="http://www.w3.org/2000/svg"
   xmlns:svg="http://www.w3.org/2000/svg">
  <defs
     id="defs1" />
  <g
     id="layer1"
     transform="translate(-256.97379,-42.436502)">
    <g
       id="g28"
       transform="translate(-9.8570573e-5,-0.18927473)">
      <path
         id="path13-6-74"
         style="fill:#9abfcf;stroke-width:2.35857;stroke-linecap:round;paint-order:stroke fill markers"
         d="m 270.22343,45.78578 c -0.18969,0.01331 -0.29222,0.184521 -0.25063,0.44235 0.0687,0.425722 0.10304,0.856403 0.10335,1.288294 -7e-5,4.48899 -3.63919,8.128289 -8.12818,8.128186 -0.59348,-0.003 -1.18392,-0.07129 -1.76114,-0.202572 -0.41024,-0.0933 -0.65744,0.130015 -0.52141,0.528133 0.73056,2.13813 2.305,3.835491 4.29017,4.750615 0.46356,-2.490653 2.65489,-4.391901 5.27514,-4.39198 h 0.002 c 0.004,1.1e-5 0.008,-1.9e-5 0.0119,0 0.95707,-2.602956 3.18225,-4.520728 5.94848,-5.051372 -0.63876,-2.432821 -2.37901,-4.470007 -4.7532,-5.449796 -0.0805,-0.03321 -0.1533,-0.0463 -0.21653,-0.04186 z" />
      <path
         id="path2-29-6-2"
         style="fill:#d4dce5;fill-opacity:1;stroke-width:3.0378;stroke-linecap:round;paint-order:stroke fill markers"
         d="m 276.68961,51.989231 c -3.31167,0 -6.09341,2.269666 -6.87451,5.338175 -0.19364,-0.02622 -0.38906,-0.03978 -0.58447,-0.04031 -2.45447,7.5e-5 -4.44383,1.989689 -4.44365,4.444173 6e-5,1.81068 1.08347,3.366418 2.63705,4.058667 0.23303,0.103838 0.48495,-0.03417 0.55138,-0.280603 l 0.99478,-3.688147 c 0.16277,-0.604124 0.71998,-1.031495 1.34565,-1.029395 l 4.43952,0.0155 c 0.86948,0.0029 1.5329,0.876671 1.30277,1.715141 l -0.38861,1.415934 c -2.1e-4,8.53e-4 -3.2e-4,0.0017 -5.2e-4,0.0026 -4.7e-4,0.0021 -10e-4,0.0042 -10e-4,0.0062 -0.0343,0.160041 0.0767,0.17266 0.093,0.173633 l -0.0646,-0.0015 c 0.26903,0.0046 0.50843,0.103519 0.70022,0.261999 0.10433,0.08621 0.25442,0.09973 0.36483,0.02119 0.37106,-0.263969 0.82213,-0.421164 1.3069,-0.421162 0.74717,3e-6 1.41618,0.369737 1.83348,0.934309 0.12155,0.164441 0.26967,0.164464 0.39119,0 0.417,-0.564356 1.0851,-0.934306 1.83193,-0.934309 1.08405,-3e-6 2.00485,0.778133 2.2288,1.800406 0.0446,0.20379 0.21843,0.360911 0.42375,0.323495 1.93866,-0.353281 3.4092,-2.048543 3.4091,-4.089156 -1.3e-4,-2.296748 -1.86218,-4.158274 -4.15892,-4.158403 -0.11623,0.0032 -0.23227,0.01159 -0.34779,0.02481 -0.5702,-3.345904 -3.48136,-5.89318 -6.98975,-5.89318 z" />
      <path
         id="path48-9-6-6"
         style="fill:#d6eff7;fill-opacity:1;stroke-width:1.4816;stroke-linecap:round;paint-order:stroke fill markers"
         d="m 283.4787,66.262315 a 1.3546667,1.3546667 0 0 1 -1.35467,1.35468 1.3546667,1.3546667 0 0 1 -1.35466,-1.35468 1.3546667,1.3546667 0 0 1 1.35466,-1.354664 1.3546667,1.3546667 0 0 1 1.35467,1.354664 z" />
      <path
         id="path48-2-7-8-6"
         style="fill:#d6eff7;fill-opacity:1;stroke-width:1.4816;stroke-linecap:round;paint-order:stroke fill markers"
         d="m 281.19316,70.018227 a 1.3546667,1.3546667 0 0 1 -1.35467,1.354664 1.3546667,1.3546667 0 0 1 -1.35467,-1.354664 1.3546667,1.3546667 0 0 1 1.35467,-1.354672 1.3546667,1.3546667 0 0 1 1.35467,1.354672 z" />
      <path
         id="path48-4-76-8-4"
         style="fill:#d6eff7;fill-opacity:1;stroke-width:1.4816;stroke-linecap:round;paint-order:stroke fill markers"
         d="m 279.42275,66.262315 a 1.3546667,1.3546667 0 0 1 -1.35466,1.35468 1.3546667,1.3546667 0 0 1 -1.35467,-1.35468 1.3546667,1.3546667 0 0 1 1.35467,-1.354664 1.3546667,1.3546667 0 0 1 1.35466,1.354664 z" />
      <path
         id="rect2-7-3-4-9"
         style="fill:#f3de80;fill-opacity:1;stroke-width:4.92224;stroke-linecap:round;paint-order:stroke fill markers"
         d="m 269.86312,62.061387 -1.54959,5.751448 a 0.31128785,0.31128785 0 0 0 0.29725,0.392248 l 1.28279,0.01368 -0.88065,4.820888 a 0.24888751,0.24888751 0 0 0 0.43541,0.204816 l 6.46402,-7.694968 a 0.30833354,0.30833354 0 0 0 -0.23608,-0.506664 h -1.27111 l 0.75926,-2.766424 a 0.42970314,0.42970314 0 0 0 -0.41292,-0.54344 l -4.43877,-0.01488 a 0.4640263,0.4640263 0 0 0 -0.44961,0.343304 z" />
    </g>
  </g>
</svg>
