<svg
   width="127.99999"
   height="127.99999"
   viewBox="0 0 33.866664 33.866664"
   xmlns="http://www.w3.org/2000/svg">
  <g
     transform="translate(-256.97379,-0.10317294)">
    <g
       transform="translate(-0.17089012,0.16623619)">
      <path
         style="fill:#e3c063;fill-opacity:1;stroke-width:1.91246"
         d="m 269.07465,2.9214516 a 0.596604,0.596604 0 0 0 -0.59686,0.596346 v 1.8624185 a 0.596604,0.596604 0 0 0 0.59686,0.596346 0.596604,0.596604 0 0 0 0.59583,-0.596346 V 3.5177976 a 0.596604,0.596604 0 0 0 -0.59583,-0.596346 z m 6.06992,2.4794355 a 0.596604,0.596604 0 0 0 -0.42168,0.174666 l -1.31672,1.316716 a 0.596604,0.596604 0 0 0 0,0.843876 0.596604,0.596604 0 0 0 0.84336,0 l 1.31672,-1.317233 a 0.596604,0.596604 0 0 0 0,-0.843359 0.596604,0.596604 0 0 0 -0.42168,-0.174666 z m -12.12588,0.01499 a 0.596604,0.596604 0 0 0 -0.42219,0.174666 0.596604,0.596604 0 0 0 0,0.84336 l 1.31723,1.316715 a 0.596604,0.596604 0 0 0 0.84336,0 0.596604,0.596604 0 0 0 0,-0.843359 l -1.31672,-1.31672 a 0.596604,0.596604 0 0 0 -0.42168,-0.174666 z m 6.05545,2.06189 a 4.5898942,4.5898942 0 0 0 -4.5899,4.5898999 4.5898942,4.5898942 0 0 0 1.24592,3.125908 c 0.9475,-0.835297 2.18568,-1.34768 3.54086,-1.347722 h 0.002 c 0.003,9e-6 0.007,-1.5e-5 0.01,0 0.67413,-1.83344 1.98082,-3.322329 3.65973,-4.2302319 a 4.5898942,4.5898942 0 0 0 -3.8685,-2.137854 z m -8.54728,3.9935539 a 0.596604,0.596604 0 0 0 -0.59687,0.596346 0.596604,0.596604 0 0 0 0.59687,0.596863 h 1.8619 a 0.596604,0.596604 0 0 0 0.59634,-0.596863 0.596604,0.596604 0 0 0 -0.59634,-0.596346 z m 3.80183,4.745443 a 0.596604,0.596604 0 0 0 -0.4222,0.174666 l -1.31619,1.316716 a 0.596604,0.596604 0 0 0 0,0.843359 0.596604,0.596604 0 0 0 0.84336,0 l 0.632,-0.632003 c 0.13885,-0.553718 0.36283,-1.073588 0.65939,-1.545125 a 0.596604,0.596604 0 0 0 -0.39636,-0.157613 z" />
      <path
         style="fill:#d4dce5;fill-opacity:1;stroke-width:3.0378;stroke-linecap:round;paint-order:stroke fill markers"
         d="m 276.7296,9.4750361 c -3.31167,0 -6.09341,2.2696659 -6.87451,5.3381749 -0.19364,-0.02622 -0.38906,-0.03978 -0.58447,-0.04031 -2.45447,7.5e-5 -4.44383,1.989689 -4.44365,4.444173 6e-5,1.81068 1.08347,3.366418 2.63705,4.058667 0.23303,0.103838 0.48495,-0.03417 0.55138,-0.280603 l 0.99478,-3.688147 c 0.16277,-0.604124 0.71998,-1.031495 1.34565,-1.029395 l 4.43952,0.0155 c 0.86948,0.0029 1.5329,0.876671 1.30277,1.715141 l -0.38861,1.415934 c -2.1e-4,8.53e-4 -3.2e-4,0.0017 -5.2e-4,0.0026 -4.7e-4,0.0021 -10e-4,0.0042 -10e-4,0.0062 -0.0343,0.160041 0.0767,0.17266 0.093,0.173633 l -0.0646,-0.0015 c 0.26903,0.0046 0.50843,0.103519 0.70022,0.261999 0.10433,0.08621 0.25442,0.09973 0.36483,0.02119 0.37106,-0.263969 0.82213,-0.421164 1.3069,-0.421162 0.74717,3e-6 1.41618,0.369737 1.83348,0.934309 0.12155,0.164441 0.26967,0.164464 0.39119,0 0.417,-0.564356 1.0851,-0.934306 1.83193,-0.934309 1.08405,-3e-6 2.00485,0.778133 2.2288,1.800406 0.0446,0.20379 0.21843,0.360911 0.42375,0.323495 1.93866,-0.353281 3.4092,-2.048543 3.4091,-4.089156 -1.3e-4,-2.296748 -1.86218,-4.158274 -4.15892,-4.158403 -0.11623,0.0032 -0.23227,0.01159 -0.34779,0.02481 -0.5702,-3.345904 -3.48136,-5.8931799 -6.98975,-5.8931799 z" />
      <path
         class="snowflake"
         style="fill:#d6eff7;fill-opacity:1;stroke-width:1.4816;stroke-linecap:round;paint-order:stroke fill markers"
         d="m 283.51869,23.74812 a 1.3546667,1.3546667 0 0 1 -1.35467,1.35468 1.3546667,1.3546667 0 0 1 -1.35466,-1.35468 1.3546667,1.3546667 0 0 1 1.35466,-1.354664 1.3546667,1.3546667 0 0 1 1.35467,1.354664 z" />
      <path
         class="snowflake"
         style="fill:#d6eff7;fill-opacity:1;stroke-width:1.4816;stroke-linecap:round;paint-order:stroke fill markers"
         d="m 281.23315,27.504032 a 1.3546667,1.3546667 0 0 1 -1.35467,1.354664 1.3546667,1.3546667 0 0 1 -1.35467,-1.354664 1.3546667,1.3546667 0 0 1 1.35467,-1.354672 1.3546667,1.3546667 0 0 1 1.35467,1.354672 z" />
      <path
         class="snowflake"
         style="fill:#d6eff7;fill-opacity:1;stroke-width:1.4816;stroke-linecap:round;paint-order:stroke fill markers"
         d="m 279.46274,23.74812 a 1.3546667,1.3546667 0 0 1 -1.35466,1.35468 1.3546667,1.3546667 0 0 1 -1.35467,-1.35468 1.3546667,1.3546667 0 0 1 1.35467,-1.354664 1.3546667,1.3546667 0 0 1 1.35466,1.354664 z" />
      <path
         style="fill:#f3de80;fill-opacity:1;stroke-width:4.92224;stroke-linecap:round;paint-order:stroke fill markers"
         d="m 269.90311,19.547192 -1.54959,5.751448 a 0.31128785,0.31128785 0 0 0 0.29725,0.392248 l 1.28279,0.01368 -0.88065,4.820888 a 0.24888751,0.24888751 0 0 0 0.43541,0.204816 l 6.46402,-7.694968 a 0.30833354,0.30833354 0 0 0 -0.23608,-0.506664 h -1.27111 l 0.75926,-2.766424 a 0.42970314,0.42970314 0 0 0 -0.41292,-0.54344 l -4.43877,-0.01488 a 0.4640263,0.4640263 0 0 0 -0.44961,0.343304 z" />
    </g>
  </g>
</svg>
