<?xml version="1.0" encoding="UTF-8" standalone="no"?>
<!-- Created with Inkscape (http://www.inkscape.org/) -->

<svg
   width="127.99999"
   height="127.99999"
   viewBox="0 0 33.866664 33.866664"
   version="1.1"
   id="svg1"
   xmlns="http://www.w3.org/2000/svg"
   xmlns:svg="http://www.w3.org/2000/svg">
  <defs
     id="defs1" />
  <g
     id="layer1"
     transform="translate(-214.64046,-0.10317294)">
    <g
       id="g20"
       transform="translate(0.85697856,1.4763353)">
      <path
         id="path9-8-5"
         style="fill:#e3c063;fill-opacity:1;stroke-width:1.91246"
         d="m 225.71365,1.7584313 a 0.596604,0.596604 0 0 0 -0.59687,0.596346 v 1.8624185 a 0.596604,0.596604 0 0 0 0.59687,0.596346 0.596604,0.596604 0 0 0 0.59582,-0.596346 V 2.3547773 a 0.596604,0.596604 0 0 0 -0.59582,-0.596346 z m 6.06991,2.4794355 a 0.596604,0.596604 0 0 0 -0.42168,0.174666 l -1.31672,1.316716 a 0.596604,0.596604 0 0 0 0,0.843876 0.596604,0.596604 0 0 0 0.84336,0 l 1.31672,-1.317233 a 0.596604,0.596604 0 0 0 0,-0.843359 0.596604,0.596604 0 0 0 -0.42168,-0.174666 z m -12.12588,0.01499 a 0.596604,0.596604 0 0 0 -0.42219,0.174666 0.596604,0.596604 0 0 0 0,0.84336 l 1.31723,1.316715 a 0.596604,0.596604 0 0 0 0.84336,0 0.596604,0.596604 0 0 0 0,-0.843359 l -1.31672,-1.31672 a 0.596604,0.596604 0 0 0 -0.42168,-0.174666 z m 6.05545,2.06189 a 4.5898942,4.5898942 0 0 0 -4.5899,4.5899002 4.5898942,4.5898942 0 0 0 1.24592,3.125908 c 0.9475,-0.835297 2.18568,-1.34768 3.54087,-1.347722 h 0.002 c 0.003,9e-6 0.007,-1.5e-5 0.01,0 0.67412,-1.83344 1.98081,-3.3223292 3.65972,-4.2302322 a 4.5898942,4.5898942 0 0 0 -3.8685,-2.137854 z m -8.54728,3.9935542 a 0.596604,0.596604 0 0 0 -0.59687,0.596346 0.596604,0.596604 0 0 0 0.59687,0.596863 h 1.8619 a 0.596604,0.596604 0 0 0 0.59634,-0.596863 0.596604,0.596604 0 0 0 -0.59634,-0.596346 z m 3.80183,4.745443 a 0.596604,0.596604 0 0 0 -0.4222,0.174666 l -1.31619,1.316716 a 0.596604,0.596604 0 0 0 0,0.843359 0.596604,0.596604 0 0 0 0.84336,0 l 0.632,-0.632003 c 0.13885,-0.553718 0.36283,-1.073588 0.65939,-1.545125 a 0.596604,0.596604 0 0 0 -0.39636,-0.157613 z" />
      <path
         id="path2-29-92"
         style="fill:#d4dce5;fill-opacity:1;stroke-width:3.0378;stroke-linecap:round;paint-order:stroke fill markers"
         d="m 233.36819,8.3116378 c -3.31168,0 -6.09342,2.2696692 -6.87452,5.3381752 -0.19364,-0.02622 -0.38854,-0.03978 -0.58394,-0.04031 -2.45448,7.5e-5 -4.44435,1.990213 -4.44418,4.44469 6e-5,1.800523 1.07156,3.349755 2.61121,4.047815 0.28839,0.130751 0.60335,-0.04546 0.68575,-0.351399 l 1.05575,-3.920691 c 0.16277,-0.604122 0.72206,-1.031495 1.34772,-1.029395 l 4.43746,0.01602 c 0.86946,0.0029 1.53291,0.876156 1.30276,1.714624 l -0.43718,1.595768 h 0.0563 c 0.98316,6e-6 1.57757,1.27446 0.94516,2.027266 -0.18356,0.320577 0.097,0.34221 0.13281,0.343649 h 3.36361 c 0.0462,-0.001 0.24214,-0.02386 0.4222,-0.323495 l -0.0486,0.09509 c 0.13494,-0.256476 0.28893,-0.497259 0.4408,-0.712618 0.32369,-0.459001 0.64234,-0.822689 0.64234,-0.822689 l 0.69763,-0.800468 0.69918,0.800468 c 0,0 0.31659,0.363688 0.64027,0.822689 0.16184,0.2295 0.32999,0.485996 0.47078,0.761711 0.001,0.0026 0.003,0.0052 0.004,0.0078 0.067,0.112551 0.22311,0.128319 0.31006,0.127641 2.04078,-0.265447 3.619,-2.001815 3.6189,-4.114995 -1.3e-4,-2.296741 -1.86167,-4.15879 -4.15841,-4.158919 -0.11622,0.0032 -0.23225,0.01212 -0.34778,0.02532 -0.5702,-3.345901 -3.48188,-5.8936972 -6.99027,-5.8936972 z" />
      <path
         id="rect2-7-31"
         style="fill:#f3de80;fill-opacity:1;stroke-width:4.92224;stroke-linecap:round;paint-order:stroke fill markers"
         d="m 226.71268,18.070857 -1.54959,5.751448 a 0.31128785,0.31128785 0 0 0 0.29725,0.392248 l 1.28279,0.01368 -0.88065,4.820888 a 0.24888751,0.24888751 0 0 0 0.43541,0.204816 l 6.46402,-7.694968 a 0.30833354,0.30833354 0 0 0 -0.23608,-0.506664 h -1.27111 l 0.75926,-2.766424 a 0.42970314,0.42970314 0 0 0 -0.41292,-0.54344 l -4.43877,-0.01488 a 0.4640263,0.4640263 0 0 0 -0.44961,0.343304 z" />
      <path
         id="path1-5-9"
         class="raindrop"
         style="fill:#3981c5;fill-opacity:1;stroke-width:1.58038;stroke-linecap:round;paint-order:stroke fill markers"
         d="m 240.28833,23.312681 c 0,0.630656 -0.52251,1.141912 -1.16705,1.141912 -0.64455,0 -1.16705,-0.511256 -1.16705,-1.141912 0,-0.630648 1.16705,-1.970224 1.16705,-1.970224 0,0 1.16705,1.339576 1.16705,1.970224 z" />
      <path
         id="path1-9-9-4"
         class="raindrop"
         style="fill:#3981c5;fill-opacity:1;stroke-width:2.85246;stroke-linecap:round;paint-order:stroke fill markers"
         d="m 237.13568,27.300849 c 0,1.13828 -0.94309,2.061056 -2.10644,2.061056 -1.16336,0 -2.10644,-0.922776 -2.10644,-2.061056 0,-1.138272 2.10644,-3.556112 2.10644,-3.556112 0,0 2.10644,2.41784 2.10644,3.556112 z" />
    </g>
  </g>
</svg>
