<?xml version="1.0" encoding="UTF-8" standalone="no"?>
<!-- Created with Inkscape (http://www.inkscape.org/) -->

<svg
   width="127.99999"
   height="127.99999"
   viewBox="0 0 33.866664 33.866664"
   version="1.1"
   id="svg1"
   xmlns="http://www.w3.org/2000/svg"
   xmlns:svg="http://www.w3.org/2000/svg">
  <defs
     id="defs1" />
  <g
     id="layer1"
     transform="translate(-256.97379,-84.824076)">
    <g
       id="g75"
       transform="translate(44.406915,0.01184982)">
      <path
         id="path2-8"
         style="fill:#d4dce5;fill-opacity:1;stroke-width:3.79725;stroke-linecap:round;paint-order:stroke fill markers"
         d="m 229.75405,88.594119 c -4.13961,0 -7.61689,2.836834 -8.59327,6.672461 -0.24205,-0.0328 -0.48593,-0.04953 -0.73019,-0.05013 -3.06808,1e-4 -5.55492,2.487647 -5.5547,5.55574 7e-5,2.09052 1.15682,3.90672 2.86391,4.85345 0.42571,0.23609 0.90516,-0.0168 1.03197,-0.48731 l 1.23249,-4.57182 c 0.17645,-0.654895 0.78057,-1.117477 1.45882,-1.115177 l 5.5485,0.01964 c 0.94023,0.0032 1.6555,0.942797 1.40663,1.849497 l -0.62683,2.2872 h 0.37259 c 1.04868,1e-5 1.67859,1.35298 1.00407,2.15594 l -0.14314,0.17002 c -0.13113,0.15553 -0.0205,0.39336 0.18293,0.39326 h 0.54622 0.41651 c -0.009,-0.0882 -0.014,-0.17774 -0.0139,-0.2682 0,-1.43566 1.1854,-2.61896 2.62103,-2.61897 1.36476,1e-5 2.49915,1.06975 2.60811,2.40864 v -0.0269 c -1.4e-4,-7e-4 -3.8e-4,-0.001 -5.2e-4,-0.002 h 5.2e-4 v 0.002 c 0.0561,0.27606 0.17622,0.44864 0.30747,0.45062 0.10123,0.002 0.19747,-0.25373 0.19947,-0.35915 l -0.002,0.10542 c 0.0221,-1.41725 1.19536,-2.57865 2.61741,-2.57866 1.13864,0 2.11775,0.74414 2.47427,1.76837 0.11681,0.33556 0.39914,0.51043 0.70073,0.32143 1.46565,-0.9185 2.4418,-2.54394 2.44171,-4.40128 -1.5e-4,-2.870903 -2.32774,-5.198493 -5.19865,-5.198653 -0.14528,0.004 -0.29019,0.01502 -0.4346,0.03152 -0.71275,-4.182378 -4.35197,-7.366992 -8.73745,-7.366992 z" />
      <path
         id="path48-9"
         class="snowflake"
         style="fill:#d6eff7;fill-opacity:1;stroke-width:1.852;stroke-linecap:round;paint-order:stroke fill markers"
         d="m 240.20123,106.05835 a 1.6933334,1.6933334 0 0 1 -1.69334,1.69335 1.6933334,1.6933334 0 0 1 -1.69333,-1.69335 1.6933334,1.6933334 0 0 1 1.69333,-1.69333 1.6933334,1.6933334 0 0 1 1.69334,1.69333 z" />
      <path
         id="path48-2-7"
         class="snowflake"
         style="fill:#d6eff7;fill-opacity:1;stroke-width:1.852;stroke-linecap:round;paint-order:stroke fill markers"
         d="m 237.3443,110.75324 a 1.6933334,1.6933334 0 0 1 -1.69333,1.69333 1.6933334,1.6933334 0 0 1 -1.69334,-1.69333 1.6933334,1.6933334 0 0 1 1.69334,-1.69334 1.6933334,1.6933334 0 0 1 1.69333,1.69334 z" />
      <path
         id="path48-4-76"
         class="snowflake"
         style="fill:#d6eff7;fill-opacity:1;stroke-width:1.852;stroke-linecap:round;paint-order:stroke fill markers"
         d="m 234.46983,106.05835 a 1.6933334,1.6933334 0 0 1 -1.69333,1.69335 1.6933334,1.6933334 0 0 1 -1.69333,-1.69335 1.6933334,1.6933334 0 0 1 1.69333,-1.69333 1.6933334,1.6933334 0 0 1 1.69333,1.69333 z" />
      <path
         id="rect2-7-3"
         style="fill:#f3de80;fill-opacity:1;stroke-width:6.1528;stroke-linecap:round;paint-order:stroke fill markers"
         d="m 220.89814,100.80719 -1.93699,7.18931 a 0.38910981,0.38910981 0 0 0 0.37156,0.49031 l 1.60349,0.0171 -1.10081,6.02611 a 0.31110939,0.31110939 0 0 0 0.54426,0.25602 l 8.08003,-9.61871 a 0.38541692,0.38541692 0 0 0 -0.2951,-0.63333 h -1.58889 l 0.94908,-3.45803 a 0.53712892,0.53712892 0 0 0 -0.51615,-0.6793 l -5.54847,-0.0186 a 0.58003287,0.58003287 0 0 0 -0.56201,0.42913 z" />
    </g>
  </g>
</svg>
