<svg width="24" height="24" viewBox="0 0 24 24" fill="none" xmlns="http://www.w3.org/2000/svg">
<path d="M12 5.0897C11.6808 5.0897 11.4114 4.97992 11.1919 4.76035C10.9723 4.54078 10.8625 4.2714 10.8625 3.9522V1.9522C10.8625 1.633 10.9723 1.36361 11.1919 1.14405C11.4114 0.924481 11.6808 0.814697 12 0.814697C12.3192 0.814697 12.5886 0.924481 12.8082 1.14405C13.0277 1.36361 13.1375 1.633 13.1375 1.9522V3.9522C13.1375 4.2714 13.0277 4.54078 12.8082 4.76035C12.5886 4.97992 12.3192 5.0897 12 5.0897ZM16.8843 7.11577C16.673 6.90456 16.5674 6.64251 16.5674 6.32965C16.5674 6.01678 16.673 5.74839 16.8843 5.52447L18.2843 4.09947C18.5122 3.87157 18.7815 3.75762 19.0924 3.75762C19.4033 3.75762 19.6727 3.87157 19.9006 4.09947C20.1158 4.31071 20.2224 4.57592 20.2204 4.89512C20.2184 5.21434 20.1118 5.47956 19.9006 5.69077L18.4756 7.11577C18.2643 7.32701 17.9991 7.43262 17.6799 7.43262C17.3607 7.43262 17.0955 7.32701 16.8843 7.11577ZM20.0478 13.1375C19.7286 13.1375 19.4593 13.0277 19.2397 12.8082C19.0201 12.5886 18.9103 12.3192 18.9103 12C18.9103 11.6808 19.0201 11.4114 19.2397 11.1919C19.4593 10.9723 19.7286 10.8625 20.0478 10.8625H22.0478C22.367 10.8625 22.6364 10.9723 22.856 11.1919C23.0756 11.4114 23.1853 11.6808 23.1853 12C23.1853 12.3192 23.0756 12.5886 22.856 12.8082C22.6364 13.0277 22.367 13.1375 22.0478 13.1375H20.0478ZM12 23.1853C11.6808 23.1853 11.4114 23.0756 11.1919 22.856C10.9723 22.6364 10.8625 22.367 10.8625 22.0478V20.0478C10.8625 19.7286 10.9723 19.4593 11.1919 19.2397C11.4114 19.0201 11.6808 18.9103 12 18.9103C12.3192 18.9103 12.5886 19.0201 12.8082 19.2397C13.0277 19.4593 13.1375 19.7286 13.1375 20.0478V22.0478C13.1375 22.367 13.0277 22.6364 12.8082 22.856C12.5886 23.0756 12.3192 23.1853 12 23.1853ZM5.52447 7.11577L4.09947 5.71577C3.87157 5.49187 3.75762 5.22032 3.75762 4.9011C3.75762 4.5819 3.87157 4.31469 4.09947 4.09947C4.31469 3.88824 4.58091 3.78262 4.89812 3.78262C5.21534 3.78262 5.47956 3.88824 5.69077 4.09947L7.11577 5.52447C7.33101 5.73969 7.43862 6.0069 7.43862 6.3261C7.43862 6.64532 7.33101 6.91054 7.11577 7.12177C6.88789 7.33301 6.62168 7.43762 6.31715 7.43562C6.01261 7.43362 5.74839 7.32701 5.52447 7.11577ZM18.2783 19.9006L16.8783 18.4756C16.667 18.2477 16.5624 17.9773 16.5644 17.6644C16.5664 17.3516 16.673 17.0895 16.8843 16.8783C17.0955 16.667 17.3565 16.5614 17.6674 16.5614C17.9783 16.5614 18.2477 16.667 18.4756 16.8783L19.9006 18.2783C20.1285 18.4895 20.2383 18.7547 20.2299 19.0739C20.2216 19.3931 20.1118 19.6687 19.9006 19.9006C19.6727 20.1325 19.3991 20.2484 19.0799 20.2484C18.7607 20.2484 18.4935 20.1325 18.2783 19.9006ZM1.9522 13.1375C1.633 13.1375 1.36361 13.0277 1.14405 12.8082C0.924481 12.5886 0.814697 12.3192 0.814697 12C0.814697 11.6808 0.924481 11.4114 1.14405 11.1919C1.36361 10.9723 1.633 10.8625 1.9522 10.8625H3.9522C4.2714 10.8625 4.54078 10.9723 4.76035 11.1919C4.97991 11.4114 5.0897 11.6808 5.0897 12C5.0897 12.3192 4.97991 12.5886 4.76035 12.8082C4.54078 13.0277 4.2714 13.1375 3.9522 13.1375H1.9522ZM4.09947 19.9006C3.88426 19.6854 3.77665 19.4191 3.77665 19.1019C3.77665 18.7847 3.88426 18.5185 4.09947 18.3033L5.52447 16.8783C5.73571 16.667 5.99776 16.5614 6.31062 16.5614C6.62349 16.5614 6.89387 16.667 7.12177 16.8783C7.34967 17.1022 7.46362 17.3716 7.46362 17.6864C7.46362 18.0013 7.34967 18.2727 7.12177 18.5006L5.72177 19.9006C5.49387 20.1285 5.22031 20.2424 4.9011 20.2424C4.5819 20.2424 4.31469 20.1285 4.09947 19.9006ZM12 17.9522C10.3453 17.9522 8.9396 17.3738 7.7829 16.2171C6.6262 15.0604 6.04785 13.6547 6.04785 12C6.04785 10.3453 6.6262 8.9396 7.7829 7.7829C8.9396 6.6262 10.3453 6.04785 12 6.04785C13.6547 6.04785 15.0604 6.6262 16.2171 7.7829C17.3738 8.9396 17.9522 10.3453 17.9522 12C17.9522 13.6547 17.3738 15.0604 16.2171 16.2171C15.0604 17.3738 13.6547 17.9522 12 17.9522ZM12 15.6772C13.0163 15.6772 13.8833 15.3184 14.6008 14.6008C15.3184 13.8833 15.6772 13.0163 15.6772 12C15.6772 10.9837 15.3184 10.1168 14.6008 9.39922C13.8833 8.68164 13.0163 8.32285 12 8.32285C10.9837 8.32285 10.1168 8.68164 9.39922 9.39922C8.68164 10.1168 8.32285 10.9837 8.32285 12C8.32285 13.0163 8.68164 13.8833 9.39922 14.6008C10.1168 15.3184 10.9837 15.6772 12 15.6772Z"/>
</svg>
