<svg width="22" height="17" viewBox="0 0 22 17" fill="none" xmlns="http://www.w3.org/2000/svg">
<path d="M11 13C12.25 13 13.3125 12.5625 14.1875 11.6875C15.0625 10.8125 15.5 9.75002 15.5 8.50002C15.5 7.25002 15.0625 6.18752 14.1875 5.31252C13.3125 4.43752 12.25 4.00002 11 4.00002C9.75002 4.00002 8.68752 4.43752 7.81252 5.31252C6.93752 6.18752 6.50002 7.25002 6.50002 8.50002C6.50002 9.75002 6.93752 10.8125 7.81252 11.6875C8.68752 12.5625 9.75002 13 11 13ZM11.0011 11.0745C10.2862 11.0745 9.67828 10.8243 9.1772 10.3239C8.67612 9.82351 8.42557 9.21591 8.42557 8.50107C8.42557 7.78624 8.67577 7.17828 9.17615 6.6772C9.67653 6.17611 10.2841 5.92557 10.999 5.92557C11.7138 5.92557 12.3218 6.17576 12.8229 6.67615C13.3239 7.17653 13.5745 7.78414 13.5745 8.49897C13.5745 9.21381 13.3243 9.82177 12.8239 10.3228C12.3235 10.8239 11.7159 11.0745 11.0011 11.0745ZM11 16.1853C8.74277 16.1853 6.68136 15.5814 4.81577 14.3734C2.95021 13.1654 1.4801 11.5662 0.405449 9.57557C0.310166 9.40564 0.239699 9.23055 0.194049 9.0503C0.148383 8.87005 0.125549 8.68662 0.125549 8.50002C0.125549 8.31342 0.148383 8.13 0.194049 7.94975C0.239699 7.7695 0.310166 7.59441 0.405449 7.42447C1.4801 5.43389 2.95021 3.83461 4.81577 2.62665C6.68136 1.41868 8.74277 0.814697 11 0.814697C13.2573 0.814697 15.3187 1.41868 17.1843 2.62665C19.0498 3.83461 20.52 5.43389 21.5946 7.42447C21.6899 7.59441 21.7603 7.7695 21.806 7.94975C21.8516 8.13 21.8745 8.31342 21.8745 8.50002C21.8745 8.68662 21.8516 8.87005 21.806 9.0503C21.7603 9.23055 21.6899 9.40564 21.5946 9.57557C20.52 11.5662 19.0498 13.1654 17.1843 14.3734C15.3187 15.5814 13.2573 16.1853 11 16.1853ZM11.0005 14C12.8795 14 14.6046 13.5032 16.1756 12.5095C17.7466 11.5159 18.9488 10.1794 19.7821 8.50002C18.9488 6.82067 17.7464 5.48417 16.175 4.49052C14.6037 3.49686 12.8785 3.00002 10.9995 3.00002C9.1205 3.00002 7.39549 3.49686 5.82447 4.49052C4.25346 5.48417 3.05128 6.82067 2.21795 8.50002C3.05128 10.1794 4.25364 11.5159 5.82502 12.5095C7.39639 13.5032 9.12157 14 11.0005 14Z"/>
</svg>
