<svg width="22" height="19" viewBox="0 0 22 19" fill="none" xmlns="http://www.w3.org/2000/svg">
<path d="M10.3625 18.5978C9.81722 18.5978 9.30643 18.4665 8.83016 18.2038C8.3539 17.9411 7.96214 17.5784 7.65489 17.1157C7.41177 16.7425 7.39067 16.3574 7.59159 15.9603C7.79249 15.5632 8.11215 15.3646 8.55057 15.3646C8.76723 15.3646 8.96188 15.4283 9.13452 15.5557C9.30717 15.683 9.46414 15.8261 9.60544 15.9848C9.69276 16.0934 9.80427 16.1769 9.93997 16.2353C10.0756 16.2936 10.2165 16.3228 10.3625 16.3228C10.6339 16.3228 10.8604 16.2309 11.0421 16.0473C11.2238 15.8636 11.3147 15.636 11.3147 15.3646C11.3147 15.0933 11.2238 14.8667 11.0421 14.685C10.8604 14.5033 10.6339 14.4124 10.3625 14.4124H2.04784C1.72864 14.4124 1.45926 14.3027 1.23969 14.0831C1.02012 13.8635 0.910339 13.5942 0.910339 13.275C0.910339 12.9558 1.02012 12.6864 1.23969 12.4668C1.45926 12.2472 1.72864 12.1375 2.04784 12.1375H10.3625C11.2596 12.1375 12.0218 12.451 12.6489 13.0782C13.2761 13.7054 13.5897 14.4675 13.5897 15.3646C13.5897 16.2617 13.2761 17.0249 12.6489 17.6541C12.0218 18.2832 11.2596 18.5978 10.3625 18.5978ZM2.04784 7.86245C1.72864 7.86245 1.45926 7.75267 1.23969 7.5331C1.02012 7.31353 0.910339 7.04415 0.910339 6.72495C0.910339 6.40575 1.02012 6.13637 1.23969 5.9168C1.45926 5.69723 1.72864 5.58745 2.04784 5.58745H14.3625C14.7672 5.58745 15.1104 5.44659 15.3921 5.16487C15.6738 4.88317 15.8147 4.53998 15.8147 4.13528C15.8147 3.73056 15.6738 3.38635 15.3921 3.10265C15.1104 2.81897 14.7672 2.67712 14.3625 2.67712C14.1158 2.67712 13.8827 2.73364 13.6633 2.84668C13.444 2.95973 13.2696 3.12295 13.1402 3.33635C13.0036 3.54432 12.841 3.72947 12.6525 3.8918C12.4639 4.05412 12.2429 4.13528 11.9897 4.13528C11.5926 4.13528 11.2799 3.97839 11.0516 3.66462C10.8234 3.35084 10.7851 3.02438 10.937 2.68525C11.2101 1.98925 11.6589 1.43473 12.2832 1.02168C12.9074 0.608625 13.6005 0.4021 14.3625 0.4021C15.3929 0.4021 16.2718 0.765691 16.9989 1.49287C17.7261 2.22004 18.0897 3.10084 18.0897 4.13528C18.0897 5.16571 17.7261 6.04451 16.9989 6.77168C16.2718 7.49886 15.3929 7.86245 14.3625 7.86245H2.04784ZM19.0397 15.9271C18.6585 16.121 18.2837 16.1111 17.9152 15.8975C17.5468 15.6839 17.3625 15.3679 17.3625 14.9494C17.3625 14.6961 17.4447 14.4794 17.609 14.2991C17.7733 14.1189 17.9594 13.9565 18.1674 13.8119C18.3768 13.6786 18.5371 13.5032 18.6481 13.2858C18.7592 13.0684 18.8147 12.8364 18.8147 12.5896C18.8147 12.1849 18.6738 11.8417 18.3921 11.56C18.1104 11.2783 17.7672 11.1375 17.3625 11.1375H2.04784C1.72864 11.1375 1.45926 11.0277 1.23969 10.8081C1.02012 10.5885 0.910339 10.3191 0.910339 9.99995C0.910339 9.68075 1.02012 9.41137 1.23969 9.1918C1.45926 8.97223 1.72864 8.86245 2.04784 8.86245H17.3625C18.3929 8.86245 19.2718 9.22603 19.9989 9.9532C20.7261 10.6804 21.0897 11.5592 21.0897 12.5896C21.0897 13.3056 20.9074 13.963 20.5427 14.5619C20.178 15.1608 19.677 15.6159 19.0397 15.9271Z" />
</svg>
