<svg width="116" height="116" viewBox="0 0 116 116" fill="none" xmlns="http://www.w3.org/2000/svg">
<path d="M58.0186 115.552C50.0617 115.552 42.5856 114.059 35.5903 111.072C28.5948 108.085 22.4822 103.977 17.2525 98.7473C12.0228 93.5176 7.91466 87.4112 4.928 80.4283C1.94125 73.4454 0.447876 65.9755 0.447876 58.0186C0.447876 49.9714 1.94125 42.4501 4.928 35.4548C7.91466 28.4593 12.0158 22.367 17.2313 17.1777C22.4468 11.9884 28.5494 7.88014 35.5389 4.85303C42.5285 1.82593 50.0055 0.312378 57.97 0.312378C66.0247 0.312378 73.5551 1.82245 80.5612 4.8426C87.5672 7.86267 93.6615 11.9614 98.8441 17.1387C104.027 22.316 108.13 28.4042 111.153 35.4033C114.176 42.4023 115.687 49.9345 115.687 57.9999C115.687 65.9692 114.174 73.4509 111.147 80.4448C108.12 87.4387 104.011 93.545 98.8221 98.7637C93.6329 103.982 87.5467 108.085 80.5638 111.072C73.5809 114.059 66.0658 115.552 58.0186 115.552ZM58 102.823C70.4583 102.823 81.0434 98.4727 89.7552 89.7724C98.467 81.0722 102.823 70.4813 102.823 57.9999C102.823 45.5415 98.467 34.9565 89.7552 26.2447C81.0434 17.5329 70.4357 13.177 57.9323 13.177C45.5191 13.177 34.9566 17.5329 26.2448 26.2447C17.5329 34.9565 13.177 45.5641 13.177 58.0676C13.177 70.4808 17.5272 81.0433 26.2274 89.7551C34.9277 98.4669 45.5185 102.823 58 102.823Z" fill="#9ABFCF"/>
</svg>
