<?xml version="1.0" encoding="UTF-8" standalone="no"?>
<!-- Created with Inkscape (http://www.inkscape.org/) -->

<svg
   width="127.99999"
   height="127.99999"
   viewBox="0 0 33.866664 33.866664"
   version="1.1"
   id="svg1"
   xml:space="preserve"
   xmlns="http://www.w3.org/2000/svg"
   xmlns:svg="http://www.w3.org/2000/svg"><defs
     id="defs1" /><g
     id="layer1"><path
       id="path1"
       style="fill:#617e98;fill-opacity:1;stroke-width:0.0403526"
       d="m 13.690637,2.6856245 c -3.069141,0 -5.6728436,1.0684773 -7.8103764,3.2060058 -2.1375326,2.1375328 -3.2060058,4.7412357 -3.2060058,7.8103757 0,1.35237 0.2076795,2.613808 0.622701,3.785299 0.2088823,-0.265921 0.4316193,-0.52102 0.6712768,-0.760677 0.7715709,-0.771571 1.6873036,-1.386639 2.6975098,-1.820044 0.1209519,-0.05189 0.2436626,-0.09991 0.3669027,-0.145728 -0.049175,-0.343321 -0.081132,-0.693881 -0.081132,-1.05885 0,-1.88078 0.6531647,-3.474176 1.9590535,-4.7800697 1.3058924,-1.3058888 2.8992894,-1.9590535 4.7800704,-1.9590535 1.880785,0 3.473665,0.6531647 4.779553,1.9590535 1.305894,1.3058937 1.959054,2.8992897 1.959054,4.7800697 0,1.880785 -0.65316,3.47418 -1.959054,4.78007 -0.24068,0.240681 -0.494267,0.451183 -0.754475,0.647506 0.0456,0.09627 0.09112,0.192354 0.133325,0.290421 0.449608,1.04471 0.671793,2.179182 0.671793,3.334164 0,0.286315 -0.01387,0.571431 -0.04134,0.854211 0.473171,-0.237615 0.914729,-0.50545 1.321883,-0.806152 l 7.775236,7.775236 c 0.402344,0.402351 0.900793,0.60358 1.495,0.60358 0.594169,0 1.09213,-0.201229 1.494482,-0.60358 0.417567,-0.402344 0.626318,-0.896521 0.626318,-1.483114 0,-0.586564 -0.201229,-1.088797 -0.60358,-1.506368 l -7.797974,-7.821228 c 0.584827,-0.776629 1.05011,-1.677875 1.396297,-2.704228 0.346227,-1.026382 0.519348,-2.146438 0.519348,-3.360518 0,-3.06914 -1.068473,-5.6728429 -3.206006,-7.8103757 -2.137533,-2.1375285 -4.74072,-3.2060058 -7.80986,-3.2060058 z" /><path
       d="m 9.9920901,26.221486 q 0.4204589,0 0.7116009,-0.284418 0.291145,-0.284431 0.291145,-0.704878 0,-0.420457 -0.284418,-0.719264 -0.284431,-0.298807 -0.704876,-0.298807 -0.4204589,0 -0.7116049,0.295574 -0.291145,0.29559 -0.291145,0.716048 0,0.420443 0.284421,0.708093 0.284431,0.287652 0.704877,0.287652 z m 0.0036,-2.696921 q 0.3709919,0 0.6391529,-0.265872 0.268153,-0.265874 0.268153,-0.638223 v -2.221893 q 0,-0.372359 -0.264927,-0.63822 -0.264929,-0.265873 -0.635921,-0.265873 -0.3709959,0 -0.6391569,0.265873 -0.268152,0.265872 -0.268152,0.63822 v 2.221893 q 0,0.372361 0.264928,0.638223 0.264927,0.265872 0.635923,0.265872 z m 0.0075,5.639017 q -1.3373662,0 -2.5017465,-0.499298 Q 6.3370711,28.165 5.4647229,27.292655 4.5923775,26.420306 4.0930961,25.256557 3.5937982,24.092805 3.5937982,22.751378 q 0,-1.341443 0.4992979,-2.498162 0.4992814,-1.156732 1.3716268,-2.029078 0.8723482,-0.872347 2.0360999,-1.371629 1.1637515,-0.499298 2.5051772,-0.499298 1.341442,0 2.498161,0.499298 1.156733,0.499282 2.029078,1.371629 0.872348,0.872346 1.371629,2.032511 0.499298,1.160166 0.499298,2.497517 0,1.337366 -0.499298,2.501746 -0.499281,1.164394 -1.371629,2.036743 -0.872345,0.872345 -2.032511,1.371629 -1.160165,0.499298 -2.497518,0.499298 z"
       id="path1-9"
       style="fill:#e84c5e;fill-opacity:1;stroke-width:0.0153234" /></g></svg>
