<svg width="122" height="122" viewBox="0 0 122 122" fill="none" xmlns="http://www.w3.org/2000/svg">
<path d="M61.0001 23.5692C59.2711 23.5692 57.812 22.9746 56.6227 21.7852C55.4333 20.5959 54.8387 19.1368 54.8387 17.4078V6.57442C54.8387 4.84542 55.4333 3.38626 56.6227 2.19694C57.812 1.00763 59.2711 0.412964 61.0001 0.412964C62.7291 0.412964 64.1883 1.00763 65.3776 2.19694C66.5669 3.38626 67.1616 4.84542 67.1616 6.57442V17.4078C67.1616 19.1368 66.5669 20.5959 65.3776 21.7852C64.1883 22.9746 62.7291 23.5692 61.0001 23.5692ZM87.4565 34.5438C86.3123 33.3997 85.7402 31.9803 85.7402 30.2856C85.7402 28.5909 86.3123 27.1371 87.4565 25.9243L95.0398 18.2055C96.2742 16.971 97.7334 16.3538 99.4173 16.3538C101.101 16.3538 102.56 16.971 103.795 18.2055C104.961 19.3497 105.538 20.7863 105.527 22.5153C105.516 24.2444 104.939 25.681 103.795 26.825L96.076 34.5438C94.9319 35.688 93.4953 36.2601 91.7663 36.2601C90.0372 36.2601 88.6006 35.688 87.4565 34.5438ZM104.593 67.1616C102.864 67.1616 101.404 66.5669 100.215 65.3776C99.0257 64.1883 98.4311 62.7291 98.4311 61.0001C98.4311 59.2711 99.0257 57.812 100.215 56.6227C101.404 55.4333 102.864 54.8387 104.593 54.8387H115.426C117.155 54.8387 118.614 55.4333 119.803 56.6227C120.993 57.812 121.587 59.2711 121.587 61.0001C121.587 62.7291 120.993 64.1883 119.803 65.3776C118.614 66.5669 117.155 67.1616 115.426 67.1616H104.593ZM61.0001 121.587C59.2711 121.587 57.812 120.993 56.6227 119.803C55.4333 118.614 54.8387 117.155 54.8387 115.426V104.593C54.8387 102.864 55.4333 101.404 56.6227 100.215C57.812 99.0257 59.2711 98.4311 61.0001 98.4311C62.7291 98.4311 64.1883 99.0257 65.3776 100.215C66.5669 101.404 67.1616 102.864 67.1616 104.593V115.426C67.1616 117.155 66.5669 118.614 65.3776 119.803C64.1883 120.993 62.7291 121.587 61.0001 121.587ZM25.9242 34.5438L18.2055 26.9605C16.971 25.7477 16.3538 24.2767 16.3538 22.5476C16.3538 20.8186 16.971 19.3713 18.2055 18.2055C19.3713 17.0613 20.8133 16.4892 22.5315 16.4892C24.2498 16.4892 25.6809 17.0613 26.825 18.2055L34.5438 25.9243C35.7096 27.09 36.2926 28.5374 36.2926 30.2664C36.2926 31.9955 35.7096 33.4321 34.5438 34.5763C33.3094 35.7205 31.8675 36.2871 30.2179 36.2763C28.5683 36.2655 27.1371 35.688 25.9242 34.5438ZM95.0073 103.795L87.424 96.076C86.2798 94.8416 85.7131 93.377 85.724 91.6823C85.7348 89.9876 86.3123 88.5682 87.4565 87.424C88.6006 86.2798 90.0146 85.7077 91.6986 85.7077C93.3824 85.7077 94.8416 86.2798 96.076 87.424L103.795 95.0073C105.029 96.1515 105.624 97.5881 105.579 99.3172C105.534 101.046 104.939 102.539 103.795 103.795C102.56 105.051 101.079 105.679 99.3496 105.679C97.6205 105.679 96.1731 105.051 95.0073 103.795ZM6.57442 67.1616C4.84542 67.1616 3.38626 66.5669 2.19694 65.3776C1.00762 64.1883 0.412964 62.7291 0.412964 61.0001C0.412964 59.2711 1.00762 57.812 2.19694 56.6227C3.38626 55.4333 4.84542 54.8387 6.57442 54.8387H17.4078C19.1368 54.8387 20.5959 55.4333 21.7852 56.6227C22.9746 57.812 23.5692 59.2711 23.5692 61.0001C23.5692 62.7291 22.9746 64.1883 21.7852 65.3776C20.5959 66.5669 19.1368 67.1616 17.4078 67.1616H6.57442ZM18.2055 103.795C17.0397 102.629 16.4569 101.187 16.4569 99.4688C16.4569 97.7505 17.0397 96.3085 18.2055 95.1428L25.9242 87.424C27.0684 86.2798 28.4879 85.7077 30.1826 85.7077C31.8773 85.7077 33.3418 86.2798 34.5763 87.424C35.8107 88.6369 36.428 90.0961 36.428 91.8016C36.428 93.507 35.8107 94.977 34.5763 96.2115L26.993 103.795C25.7585 105.029 24.2767 105.646 22.5476 105.646C20.8186 105.646 19.3713 105.029 18.2055 103.795ZM61.0001 93.2411C52.0371 93.2411 44.4228 90.1084 38.1574 83.8429C31.8919 77.5774 28.7592 69.9632 28.7592 61.0001C28.7592 52.0371 31.8919 44.4228 38.1574 38.1574C44.4228 31.8919 52.0371 28.7592 61.0001 28.7592C69.9632 28.7592 77.5774 31.8919 83.8429 38.1574C90.1084 44.4228 93.2411 52.0371 93.2411 61.0001C93.2411 69.9632 90.1084 77.5774 83.8429 83.8429C77.5774 90.1084 69.9632 93.2411 61.0001 93.2411ZM61.0001 80.9182C66.5051 80.9182 71.201 78.9747 75.0878 75.0878C78.9747 71.201 80.9182 66.5051 80.9182 61.0001C80.9182 55.4952 78.9747 50.7993 75.0878 46.9125C71.201 43.0256 66.5051 41.0821 61.0001 41.0821C55.4952 41.0821 50.7993 43.0256 46.9125 46.9125C43.0256 50.7993 41.0821 55.4952 41.0821 61.0001C41.0821 66.5051 43.0256 71.201 46.9125 75.0878C50.7993 78.9747 55.4952 80.9182 61.0001 80.9182Z" fill="#D2AF69"/>
</svg>
