<svg width="15" height="16" viewBox="0 0 15 16" fill="none" xmlns="http://www.w3.org/2000/svg">
<path d="M8.56778 3.17825V14.5552C8.56778 14.768 8.49599 14.9462 8.3524 15.0898C8.20882 15.2334 8.03062 15.3052 7.8178 15.3052C7.60499 15.3052 7.42679 15.2334 7.2832 15.0898C7.13962 14.9462 7.06783 14.768 7.06783 14.5552V3.17825L1.89858 8.3475C1.74986 8.49622 1.57583 8.56961 1.37648 8.56768C1.17711 8.56576 0.99987 8.48723 0.844753 8.3321C0.699887 8.17698 0.624887 8.00135 0.619753 7.8052C0.61462 7.60905 0.68962 7.43342 0.844753 7.2783L7.18513 0.937927C7.27871 0.844344 7.37743 0.778316 7.48128 0.73985C7.58511 0.701384 7.69729 0.68215 7.8178 0.68215C7.93832 0.68215 8.0505 0.701384 8.15433 0.73985C8.25818 0.778316 8.3569 0.844344 8.45048 0.937927L14.7909 7.2783C14.9293 7.41675 15.0002 7.58822 15.0034 7.7927C15.0066 7.99718 14.9357 8.17698 14.7909 8.3321C14.6357 8.48723 14.4575 8.5648 14.2563 8.5648C14.055 8.5648 13.8768 8.48723 13.7217 8.3321L8.56778 3.17825Z"/>
</svg>
