<svg width="120" height="120" viewBox="0 0 120 120" fill="none" xmlns="http://www.w3.org/2000/svg">
<mask id="path-1-inside-1_19_252" fill="white">
<path d="M60 120C48.1331 120 36.5327 116.481 26.6658 109.888C16.7988 103.295 9.10848 93.9246 4.56723 82.961C0.025969 71.9974 -1.16223 59.9334 1.15288 48.2946C3.468 36.6557 9.18245 25.9647 17.5736 17.5736C25.9648 9.18244 36.6557 3.46799 48.2946 1.15288C59.9334 -1.16223 71.9974 0.0259716 82.961 4.56723C93.9246 9.10849 103.295 16.7988 109.888 26.6658C116.481 36.5327 120 48.1331 120 60L108.274 60C108.274 50.4522 105.443 41.1189 100.139 33.1802C94.8343 25.2415 87.2948 19.054 78.4738 15.4002C69.6528 11.7465 59.9465 10.7905 50.5821 12.6531C41.2178 14.5158 32.6161 19.1135 25.8648 25.8648C19.1135 32.6161 14.5158 41.2178 12.6531 50.5821C10.7905 59.9464 11.7465 69.6528 15.4002 78.4738C19.054 87.2948 25.2415 94.8343 33.1802 100.139C41.1188 105.443 50.4522 108.274 60 108.274V120Z"/>
</mask>
<path d="M60 120C48.1331 120 36.5327 116.481 26.6658 109.888C16.7988 103.295 9.10848 93.9246 4.56723 82.961C0.025969 71.9974 -1.16223 59.9334 1.15288 48.2946C3.468 36.6557 9.18245 25.9647 17.5736 17.5736C25.9648 9.18244 36.6557 3.46799 48.2946 1.15288C59.9334 -1.16223 71.9974 0.0259716 82.961 4.56723C93.9246 9.10849 103.295 16.7988 109.888 26.6658C116.481 36.5327 120 48.1331 120 60L108.274 60C108.274 50.4522 105.443 41.1189 100.139 33.1802C94.8343 25.2415 87.2948 19.054 78.4738 15.4002C69.6528 11.7465 59.9465 10.7905 50.5821 12.6531C41.2178 14.5158 32.6161 19.1135 25.8648 25.8648C19.1135 32.6161 14.5158 41.2178 12.6531 50.5821C10.7905 59.9464 11.7465 69.6528 15.4002 78.4738C19.054 87.2948 25.2415 94.8343 33.1802 100.139C41.1188 105.443 50.4522 108.274 60 108.274V120Z" stroke-width="20" mask="url(#path-1-inside-1_19_252)"/>
</svg>
