<svg width="25" height="25" viewBox="0 0 24 25" fill="none" xmlns="http://www.w3.org/2000/svg">
<path d="M22.4 25L13.7556 15.9954C13.0889 16.5818 12.3151 17.0409 11.4342 17.3727C10.5534 17.7045 9.61603 17.8704 8.62223 17.8704C6.21243 17.8704 4.17294 17.0004 2.50377 15.2604C0.834589 13.5205 0 11.4121 0 8.93521C0 6.45836 0.835189 4.34994 2.50557 2.60996C4.17592 0.869988 6.2037 0 8.5889 0C10.9741 0 12.9981 0.869988 14.6611 2.60996C16.3241 4.34994 17.1556 6.45951 17.1556 8.93868C17.1556 9.93945 17 10.8989 16.6889 11.8172C16.3778 12.7353 15.9259 13.5803 15.3333 14.3519L24 23.3334L22.4 25ZM8.6 15.5556C10.3593 15.5556 11.8546 14.9094 13.0861 13.6169C14.3176 12.3245 14.9333 10.7639 14.9333 8.93521C14.9333 7.10648 14.3176 5.5459 13.0861 4.25347C11.8546 2.96104 10.3593 2.31483 8.6 2.31483C6.8284 2.31483 5.32253 2.96104 4.0824 4.25347C2.84227 5.5459 2.2222 7.10648 2.2222 8.93521C2.2222 10.7639 2.84227 12.3245 4.0824 13.6169C5.32253 14.9094 6.8284 15.5556 8.6 15.5556Z" />
</svg>
