<svg width="32" height="32" viewBox="0 0 32 33" fill="none" xmlns="http://www.w3.org/2000/svg">
<path d="M13.906 32.3333C13.5143 32.3333 13.169 32.2049 12.8702 31.9481C12.5715 31.6914 12.3922 31.37 12.3323 30.984L11.8013 27.3012C11.2721 27.1217 10.71 26.8636 10.1149 26.5267C9.51978 26.1898 9.00179 25.8318 8.5609 25.4529L5.18799 26.9733C4.81124 27.1328 4.43358 27.1506 4.05503 27.0267C3.67647 26.9027 3.38214 26.6638 3.17203 26.3098L1.06307 22.6025C0.852959 22.2486 0.79207 21.8812 0.880404 21.5005C0.968709 21.1198 1.17668 20.8049 1.50432 20.5556L4.54811 18.2917C4.49825 18.0139 4.46246 17.718 4.44074 17.4039C4.41902 17.0898 4.40815 16.7938 4.40815 16.516C4.40815 16.2489 4.41902 15.9592 4.44074 15.6469C4.46246 15.3346 4.49825 15.0217 4.54811 14.7083L1.50432 12.4444C1.17668 12.1951 0.971376 11.8775 0.888404 11.4915C0.805432 11.1054 0.869001 10.7354 1.07911 10.3814L3.17203 6.72225C3.38214 6.37897 3.67647 6.14269 4.05503 6.01342C4.43358 5.88414 4.81124 5.89928 5.18799 6.05883L8.54486 7.55242C9.01781 7.16994 9.54257 6.81293 10.1192 6.48137C10.6957 6.14979 11.2511 5.89818 11.7853 5.72654L12.3323 2.01604C12.3922 1.63001 12.5715 1.30862 12.8702 1.05187C13.169 0.795096 13.5143 0.666706 13.906 0.666706H18.094C18.4857 0.666706 18.831 0.795096 19.1297 1.05187C19.4285 1.30862 19.6078 1.63001 19.6677 2.01604L20.1987 5.71479C20.7742 5.92632 21.3338 6.18433 21.8776 6.48883C22.4214 6.79333 22.9259 7.14786 23.391 7.55242L26.828 6.05883C27.2048 5.89928 27.5796 5.88414 27.9524 6.01342C28.3253 6.14269 28.6168 6.37897 28.8269 6.72225L30.9369 10.3975C31.147 10.7514 31.2079 11.1234 31.1196 11.5133C31.0313 11.9033 30.8233 12.2136 30.4957 12.4444L27.3877 14.7115C27.459 15.0221 27.5019 15.3282 27.5165 15.6298C27.5311 15.9314 27.5384 16.2215 27.5384 16.5C27.5384 16.7678 27.5284 17.0497 27.5085 17.3456C27.4885 17.6416 27.4454 17.9573 27.3792 18.2927L30.439 20.5556C30.7667 20.7864 30.9773 21.0967 31.071 21.4867C31.1646 21.8766 31.1064 22.2486 30.8963 22.6025L28.8055 26.2937C28.5883 26.6477 28.2877 26.8867 27.9038 27.0106C27.5199 27.1345 27.1432 27.1167 26.7735 26.9572L23.391 25.4369C22.9074 25.8372 22.3935 26.2024 21.8493 26.5325C21.3052 26.8627 20.7549 27.1136 20.1987 27.2852L19.6677 30.984C19.6078 31.37 19.4285 31.6914 19.1297 31.9481C18.831 32.2049 18.4857 32.3333 18.094 32.3333H13.906ZM14.2543 30.2393H17.7158L18.3152 25.6506C19.1884 25.4284 19.9977 25.1024 20.743 24.6725C21.4884 24.2427 22.203 23.6948 22.8867 23.0288L27.1688 24.8654L28.8269 21.953L25.0534 19.1496C25.1738 18.6766 25.2637 18.2254 25.3232 17.7959C25.3826 17.3664 25.4124 16.9345 25.4124 16.5C25.4124 16.0477 25.3855 15.6122 25.3317 15.1934C25.2779 14.7746 25.1852 14.3376 25.0534 13.8825L28.8589 11.047L27.2009 8.13462L22.8707 9.97971C22.2945 9.34224 21.6009 8.77992 20.79 8.29275C19.9791 7.80555 19.1488 7.4911 18.2992 7.34937L17.7457 2.76066H14.2628L13.7115 7.33333C12.8127 7.52278 11.9843 7.8351 11.2265 8.27029C10.4687 8.70548 9.75711 9.2671 9.09186 9.95512L4.79911 8.13462L3.14103 11.047L6.90915 13.8258C6.78168 14.2511 6.68732 14.6859 6.62607 15.1303C6.56479 15.5748 6.53415 16.0367 6.53415 16.516C6.53415 16.9683 6.56479 17.4113 6.62607 17.8451C6.68732 18.2788 6.77635 18.7137 6.89315 19.1496L3.14103 21.953L4.79911 24.8654L9.07582 23.0363C9.7311 23.7044 10.4394 24.2543 11.2008 24.6859C11.9622 25.1175 12.7938 25.4444 13.6955 25.6667L14.2543 30.2393ZM15.9743 21.297C17.3084 21.297 18.4414 20.831 19.3733 19.899C20.3053 18.967 20.7713 17.834 20.7713 16.5C20.7713 15.166 20.3053 14.033 19.3733 13.101C18.4414 12.169 17.3084 11.703 15.9743 11.703C14.6417 11.703 13.5091 12.169 12.5764 13.101C11.6437 14.033 11.1774 15.166 11.1774 16.5C11.1774 17.834 11.6437 18.967 12.5764 19.899C13.5091 20.831 14.6417 21.297 15.9743 21.297Z"/>
</svg>
